<mxfile host="app.diagrams.net" agent="Mozilla/5.0 (Macintosh; Intel Mac OS X 10_15_7) AppleWebKit/537.36 (KHTML, like Gecko) Chrome/138.0.0.0 YaBrowser/25.8.0.0 Safari/537.36" version="28.2.5">
  <diagram name="Page-1" id="q5gKrhV2WKv8pvfnoQvh">
    <mxGraphModel dx="2057" dy="1353" grid="1" gridSize="10" guides="1" tooltips="1" connect="1" arrows="1" fold="1" page="1" pageScale="1" pageWidth="827" pageHeight="1169" math="0" shadow="0">
      <root>
        <mxCell id="0" />
        <mxCell id="1" parent="0" />
        <object placeholders="1" c4Name="OS DashBoards" c4Type="Container" c4Technology="OS DashBoards" c4Description="UI for logs, alerts" label="&lt;font style=&quot;font-size: 16px&quot;&gt;&lt;b&gt;%c4Name%&lt;/b&gt;&lt;/font&gt;&lt;div&gt;[%c4Type%: %c4Technology%]&lt;/div&gt;&lt;br&gt;&lt;div&gt;&lt;font style=&quot;font-size: 11px&quot;&gt;&lt;font color=&quot;#E6E6E6&quot;&gt;%c4Description%&lt;/font&gt;&lt;/div&gt;" id="4iiRHGs6QgPylpO3pdiK-98">
          <mxCell style="rounded=1;whiteSpace=wrap;html=1;fontSize=11;labelBackgroundColor=none;fillColor=#f0a30a;fontColor=#000000;align=center;arcSize=10;strokeColor=#BD7000;metaEdit=1;resizable=0;points=[[0.25,0,0],[0.5,0,0],[0.75,0,0],[1,0.25,0],[1,0.5,0],[1,0.75,0],[0.75,1,0],[0.5,1,0],[0.25,1,0],[0,0.75,0],[0,0.5,0],[0,0.25,0]];" vertex="1" parent="1">
            <mxGeometry x="2200" y="1150" width="240" height="120" as="geometry" />
          </mxCell>
        </object>
        <object placeholders="1" c4Name="Ext systems" c4Type="Container" c4Technology="Telegram, e-mail, &#xa;mobile provider, etc" c4Description="Delivers messages and calls" label="&lt;font style=&quot;font-size: 16px&quot;&gt;&lt;b&gt;%c4Name%&lt;/b&gt;&lt;/font&gt;&lt;div&gt;[%c4Type%: %c4Technology%]&lt;/div&gt;&lt;br&gt;&lt;div&gt;&lt;font style=&quot;font-size: 11px&quot;&gt;&lt;font color=&quot;#E6E6E6&quot;&gt;%c4Description%&lt;/font&gt;&lt;/div&gt;" id="4iiRHGs6QgPylpO3pdiK-97">
          <mxCell style="rounded=1;whiteSpace=wrap;html=1;fontSize=11;labelBackgroundColor=none;fillColor=#647687;align=center;arcSize=10;strokeColor=#314354;metaEdit=1;resizable=0;points=[[0.25,0,0],[0.5,0,0],[0.75,0,0],[1,0.25,0],[1,0.5,0],[1,0.75,0],[0.75,1,0],[0.5,1,0],[0.25,1,0],[0,0.75,0],[0,0.5,0],[0,0.25,0]];fontColor=#ffffff;" vertex="1" parent="1">
            <mxGeometry x="2150" y="940" width="240" height="120" as="geometry" />
          </mxCell>
        </object>
        <object placeholders="1" c4Name="Logstash" c4Type="Container" c4Technology="Logstash" c4Description="- prepares general logs;&#xa;- prepares audit logs in separate pipeline;" label="&lt;font style=&quot;font-size: 16px&quot;&gt;&lt;b&gt;%c4Name%&lt;/b&gt;&lt;/font&gt;&lt;div&gt;[%c4Type%: %c4Technology%]&lt;/div&gt;&lt;br&gt;&lt;div&gt;&lt;font style=&quot;font-size: 11px&quot;&gt;&lt;font color=&quot;#E6E6E6&quot;&gt;%c4Description%&lt;/font&gt;&lt;/div&gt;" id="4iiRHGs6QgPylpO3pdiK-80">
          <mxCell style="rounded=1;whiteSpace=wrap;html=1;fontSize=11;labelBackgroundColor=none;fillColor=#f0a30a;fontColor=#000000;align=center;arcSize=10;strokeColor=#BD7000;metaEdit=1;resizable=0;points=[[0.25,0,0],[0.5,0,0],[0.75,0,0],[1,0.25,0],[1,0.5,0],[1,0.75,0],[0.75,1,0],[0.5,1,0],[0.25,1,0],[0,0.75,0],[0,0.5,0],[0,0.25,0]];" vertex="1" parent="1">
            <mxGeometry x="1840" y="1150" width="240" height="120" as="geometry" />
          </mxCell>
        </object>
        <object placeholders="1" c4Name="Grafana" c4Type="Container" c4Technology="Grafana" c4Description="Dashboards and alerts lists for metrics and traces" label="&lt;font style=&quot;font-size: 16px&quot;&gt;&lt;b&gt;%c4Name%&lt;/b&gt;&lt;/font&gt;&lt;div&gt;[%c4Type%: %c4Technology%]&lt;/div&gt;&lt;br&gt;&lt;div&gt;&lt;font style=&quot;font-size: 11px&quot;&gt;&lt;font color=&quot;#E6E6E6&quot;&gt;%c4Description%&lt;/font&gt;&lt;/div&gt;" id="4iiRHGs6QgPylpO3pdiK-51">
          <mxCell style="rounded=1;whiteSpace=wrap;html=1;fontSize=11;labelBackgroundColor=none;fillColor=#60a917;fontColor=#ffffff;align=center;arcSize=10;strokeColor=#2D7600;metaEdit=1;resizable=0;points=[[0.25,0,0],[0.5,0,0],[0.75,0,0],[1,0.25,0],[1,0.5,0],[1,0.75,0],[0.75,1,0],[0.5,1,0],[0.25,1,0],[0,0.75,0],[0,0.5,0],[0,0.25,0]];" vertex="1" parent="1">
            <mxGeometry x="2160" y="660" width="240" height="120" as="geometry" />
          </mxCell>
        </object>
        <object placeholders="1" c4Name="Jaeger Ingestor" c4Type="Container" c4Technology="" c4Description="Takes traces from mq" label="&lt;font style=&quot;font-size: 16px&quot;&gt;&lt;b&gt;%c4Name%&lt;/b&gt;&lt;/font&gt;&lt;div&gt;[%c4Type%: %c4Technology%]&lt;/div&gt;&lt;br&gt;&lt;div&gt;&lt;font style=&quot;font-size: 11px&quot;&gt;&lt;font color=&quot;#E6E6E6&quot;&gt;%c4Description%&lt;/font&gt;&lt;/div&gt;" id="4iiRHGs6QgPylpO3pdiK-50">
          <mxCell style="rounded=1;whiteSpace=wrap;html=1;fontSize=11;labelBackgroundColor=none;fillColor=#e51400;fontColor=#ffffff;align=center;arcSize=10;strokeColor=#B20000;metaEdit=1;resizable=0;points=[[0.25,0,0],[0.5,0,0],[0.75,0,0],[1,0.25,0],[1,0.5,0],[1,0.75,0],[0.75,1,0],[0.5,1,0],[0.25,1,0],[0,0.75,0],[0,0.5,0],[0,0.25,0]];" vertex="1" parent="1">
            <mxGeometry x="1840" y="650" width="240" height="120" as="geometry" />
          </mxCell>
        </object>
        <object placeholders="1" c4Name="Jaeger Query" c4Type="Container" c4Technology="" c4Description="Read/write traces in storage" label="&lt;font style=&quot;font-size: 16px&quot;&gt;&lt;b&gt;%c4Name%&lt;/b&gt;&lt;/font&gt;&lt;div&gt;[%c4Type%: %c4Technology%]&lt;/div&gt;&lt;br&gt;&lt;div&gt;&lt;font style=&quot;font-size: 11px&quot;&gt;&lt;font color=&quot;#E6E6E6&quot;&gt;%c4Description%&lt;/font&gt;&lt;/div&gt;" id="4iiRHGs6QgPylpO3pdiK-49">
          <mxCell style="rounded=1;whiteSpace=wrap;html=1;fontSize=11;labelBackgroundColor=none;fillColor=#e51400;fontColor=#ffffff;align=center;arcSize=10;strokeColor=#B20000;metaEdit=1;resizable=0;points=[[0.25,0,0],[0.5,0,0],[0.75,0,0],[1,0.25,0],[1,0.5,0],[1,0.75,0],[0.75,1,0],[0.5,1,0],[0.25,1,0],[0,0.75,0],[0,0.5,0],[0,0.25,0]];" vertex="1" parent="1">
            <mxGeometry x="2068" y="440" width="240" height="120" as="geometry" />
          </mxCell>
        </object>
        <object placeholders="1" c4Name="OTel Collector" c4Type="Container" c4Technology="" c4Description="Collects traces from agents" label="&lt;font style=&quot;font-size: 16px&quot;&gt;&lt;b&gt;%c4Name%&lt;/b&gt;&lt;/font&gt;&lt;div&gt;[%c4Type%: %c4Technology%]&lt;/div&gt;&lt;br&gt;&lt;div&gt;&lt;font style=&quot;font-size: 11px&quot;&gt;&lt;font color=&quot;#E6E6E6&quot;&gt;%c4Description%&lt;/font&gt;&lt;/div&gt;" id="4iiRHGs6QgPylpO3pdiK-48">
          <mxCell style="rounded=1;whiteSpace=wrap;html=1;fontSize=11;labelBackgroundColor=none;fillColor=#e51400;fontColor=#ffffff;align=center;arcSize=10;strokeColor=#B20000;metaEdit=1;resizable=0;points=[[0.25,0,0],[0.5,0,0],[0.75,0,0],[1,0.25,0],[1,0.5,0],[1,0.75,0],[0.75,1,0],[0.5,1,0],[0.25,1,0],[0,0.75,0],[0,0.5,0],[0,0.25,0]];" vertex="1" parent="1">
            <mxGeometry x="1440" y="464.5" width="240" height="120" as="geometry" />
          </mxCell>
        </object>
        <object placeholders="1" c4Name="Order Journey Analyzer" c4Type="Container" c4Technology="SpringBoot" c4Description="Analyze order movement traces and prepares alerts" label="&lt;font style=&quot;font-size: 16px&quot;&gt;&lt;b&gt;%c4Name%&lt;/b&gt;&lt;/font&gt;&lt;div&gt;[%c4Type%: %c4Technology%]&lt;/div&gt;&lt;br&gt;&lt;div&gt;&lt;font style=&quot;font-size: 11px&quot;&gt;&lt;font color=&quot;#E6E6E6&quot;&gt;%c4Description%&lt;/font&gt;&lt;/div&gt;" id="4iiRHGs6QgPylpO3pdiK-47">
          <mxCell style="rounded=1;whiteSpace=wrap;html=1;fontSize=11;labelBackgroundColor=none;fillColor=#60a917;fontColor=#ffffff;align=center;arcSize=10;strokeColor=#2D7600;metaEdit=1;resizable=0;points=[[0.25,0,0],[0.5,0,0],[0.75,0,0],[1,0.25,0],[1,0.5,0],[1,0.75,0],[0.75,1,0],[0.5,1,0],[0.25,1,0],[0,0.75,0],[0,0.5,0],[0,0.25,0]];" vertex="1" parent="1">
            <mxGeometry x="1790" y="820" width="240" height="120" as="geometry" />
          </mxCell>
        </object>
        <object placeholders="1" c4Name="AlertsManager" c4Type="Container" c4Technology="Prometheus" c4Description="Manages alerts and notifies via tg, phone" label="&lt;font style=&quot;font-size: 16px&quot;&gt;&lt;b&gt;%c4Name%&lt;/b&gt;&lt;/font&gt;&lt;div&gt;[%c4Type%: %c4Technology%]&lt;/div&gt;&lt;br&gt;&lt;div&gt;&lt;font style=&quot;font-size: 11px&quot;&gt;&lt;font color=&quot;#E6E6E6&quot;&gt;%c4Description%&lt;/font&gt;&lt;/div&gt;" id="4iiRHGs6QgPylpO3pdiK-46">
          <mxCell style="rounded=1;whiteSpace=wrap;html=1;fontSize=11;labelBackgroundColor=none;fillColor=#60a917;fontColor=#ffffff;align=center;arcSize=10;strokeColor=#2D7600;metaEdit=1;resizable=0;points=[[0.25,0,0],[0.5,0,0],[0.75,0,0],[1,0.25,0],[1,0.5,0],[1,0.75,0],[0.75,1,0],[0.5,1,0],[0.25,1,0],[0,0.75,0],[0,0.5,0],[0,0.25,0]];" vertex="1" parent="1">
            <mxGeometry x="1796" y="1000" width="240" height="120" as="geometry" />
          </mxCell>
        </object>
        <object placeholders="1" c4Name="MES API" c4Type="Container" c4Technology="C#" c4Description="- Assigns orders on operators&#xa;- Shows list of orders&#xa;- Calculates price of the order" label="&lt;font style=&quot;font-size: 16px&quot;&gt;&lt;b&gt;%c4Name%&lt;/b&gt;&lt;/font&gt;&lt;div&gt;[%c4Type%: %c4Technology%]&lt;/div&gt;&lt;br&gt;&lt;div&gt;&lt;font style=&quot;font-size: 11px&quot;&gt;&lt;font color=&quot;#E6E6E6&quot;&gt;%c4Description%&lt;/font&gt;&lt;/div&gt;" id="6bDfexBDMjg7O7AECw8N-1">
          <mxCell style="rounded=1;whiteSpace=wrap;html=1;fontSize=11;labelBackgroundColor=none;fillColor=#23A2D9;fontColor=#ffffff;align=center;arcSize=10;strokeColor=#0E7DAD;metaEdit=1;resizable=0;points=[[0.25,0,0],[0.5,0,0],[0.75,0,0],[1,0.25,0],[1,0.5,0],[1,0.75,0],[0.75,1,0],[0.5,1,0],[0.25,1,0],[0,0.75,0],[0,0.5,0],[0,0.25,0]];" parent="1" vertex="1">
            <mxGeometry x="770" y="960" width="240" height="120" as="geometry" />
          </mxCell>
        </object>
        <mxCell id="4iiRHGs6QgPylpO3pdiK-19" style="edgeStyle=orthogonalEdgeStyle;rounded=0;orthogonalLoop=1;jettySize=auto;html=1;exitX=0.169;exitY=0.009;exitDx=0;exitDy=0;exitPerimeter=0;" edge="1" parent="1" source="6bDfexBDMjg7O7AECw8N-2" target="4iiRHGs6QgPylpO3pdiK-4">
          <mxGeometry relative="1" as="geometry">
            <Array as="points">
              <mxPoint x="1770" y="660" />
              <mxPoint x="1770" y="700" />
            </Array>
          </mxGeometry>
        </mxCell>
        <object placeholders="1" c4Name="Messages Queue" c4Type="Container" c4Technology="RabbitMQ" c4Description="- Send messages about new orders, changes of statuses between containers, has several topics;&#xa;- works with traces;" label="&lt;font style=&quot;font-size: 16px&quot;&gt;&lt;b&gt;%c4Name%&lt;/b&gt;&lt;/font&gt;&lt;div&gt;[%c4Type%:&amp;nbsp;%c4Technology%]&lt;/div&gt;&lt;br&gt;&lt;div&gt;&lt;font style=&quot;font-size: 11px&quot;&gt;&lt;font color=&quot;#E6E6E6&quot;&gt;%c4Description%&lt;/font&gt;&lt;/div&gt;" id="6bDfexBDMjg7O7AECw8N-2">
          <mxCell style="shape=cylinder3;size=15;direction=south;whiteSpace=wrap;html=1;boundedLbl=1;rounded=0;labelBackgroundColor=none;fillColor=#23A2D9;fontSize=12;fontColor=#ffffff;align=center;strokeColor=#0E7DAD;metaEdit=1;points=[[0.5,0,0],[1,0.25,0],[1,0.5,0],[1,0.75,0],[0.5,1,0],[0,0.75,0],[0,0.5,0],[0,0.25,0]];resizable=0;" parent="1" vertex="1">
            <mxGeometry x="1440" y="640" width="240" height="120" as="geometry" />
          </mxCell>
        </object>
        <mxCell id="4iiRHGs6QgPylpO3pdiK-116" style="edgeStyle=orthogonalEdgeStyle;rounded=0;orthogonalLoop=1;jettySize=auto;html=1;exitX=1;exitY=0.5;exitDx=0;exitDy=0;exitPerimeter=0;" edge="1" parent="1" source="6bDfexBDMjg7O7AECw8N-3" target="4iiRHGs6QgPylpO3pdiK-113">
          <mxGeometry relative="1" as="geometry">
            <Array as="points">
              <mxPoint x="780" y="340" />
              <mxPoint x="780" y="530" />
              <mxPoint x="610" y="530" />
            </Array>
          </mxGeometry>
        </mxCell>
        <object placeholders="1" c4Name="Internet Shop" c4Type="Container" c4Technology="Vue, TypeScript, Threejs" c4Description="User can make an order, upload 3d model, work in 3d editor" label="&lt;font style=&quot;font-size: 16px&quot;&gt;&lt;b&gt;%c4Name%&lt;/b&gt;&lt;/font&gt;&lt;div&gt;[%c4Type%:&amp;nbsp;%c4Technology%]&lt;/div&gt;&lt;br&gt;&lt;div&gt;&lt;font style=&quot;font-size: 11px&quot;&gt;&lt;font color=&quot;#E6E6E6&quot;&gt;%c4Description%&lt;/font&gt;&lt;/div&gt;" id="6bDfexBDMjg7O7AECw8N-3">
          <mxCell style="shape=mxgraph.c4.webBrowserContainer2;whiteSpace=wrap;html=1;boundedLbl=1;rounded=0;labelBackgroundColor=none;strokeColor=#118ACD;fillColor=#23A2D9;strokeColor=#118ACD;strokeColor2=#0E7DAD;fontSize=12;fontColor=#ffffff;align=center;metaEdit=1;points=[[0.5,0,0],[1,0.25,0],[1,0.5,0],[1,0.75,0],[0.5,1,0],[0,0.75,0],[0,0.5,0],[0,0.25,0]];resizable=0;" parent="1" vertex="1">
            <mxGeometry x="520" y="260" width="240" height="160" as="geometry" />
          </mxCell>
        </object>
        <object placeholders="1" c4Name="MES" c4Type="Container" c4Technology="React, typescript" c4Description="provide interface to assign orders on operators, shows list of orders" label="&lt;font style=&quot;font-size: 16px&quot;&gt;&lt;b&gt;%c4Name%&lt;/b&gt;&lt;/font&gt;&lt;div&gt;[%c4Type%:&amp;nbsp;%c4Technology%]&lt;/div&gt;&lt;br&gt;&lt;div&gt;&lt;font style=&quot;font-size: 11px&quot;&gt;&lt;font color=&quot;#E6E6E6&quot;&gt;%c4Description%&lt;/font&gt;&lt;/div&gt;" id="6bDfexBDMjg7O7AECw8N-4">
          <mxCell style="shape=mxgraph.c4.webBrowserContainer2;whiteSpace=wrap;html=1;boundedLbl=1;rounded=0;labelBackgroundColor=none;strokeColor=#118ACD;fillColor=#23A2D9;strokeColor=#118ACD;strokeColor2=#0E7DAD;fontSize=12;fontColor=#ffffff;align=center;metaEdit=1;points=[[0.5,0,0],[1,0.25,0],[1,0.5,0],[1,0.75,0],[0.5,1,0],[0,0.75,0],[0,0.5,0],[0,0.25,0]];resizable=0;" parent="1" vertex="1">
            <mxGeometry x="340" y="1060" width="240" height="160" as="geometry" />
          </mxCell>
        </object>
        <mxCell id="6bDfexBDMjg7O7AECw8N-20" style="edgeStyle=orthogonalEdgeStyle;rounded=0;orthogonalLoop=1;jettySize=auto;html=1;" parent="1" source="6bDfexBDMjg7O7AECw8N-5" target="6bDfexBDMjg7O7AECw8N-4" edge="1">
          <mxGeometry relative="1" as="geometry">
            <Array as="points">
              <mxPoint x="320" y="985" />
              <mxPoint x="320" y="1140" />
            </Array>
          </mxGeometry>
        </mxCell>
        <object placeholders="1" c4Name="Operator" c4Type="Person" c4Description="Takes order in work, manufactures jewerly " label="&lt;font style=&quot;font-size: 16px&quot;&gt;&lt;b&gt;%c4Name%&lt;/b&gt;&lt;/font&gt;&lt;div&gt;[%c4Type%]&lt;/div&gt;&lt;br&gt;&lt;div&gt;&lt;font style=&quot;font-size: 11px&quot;&gt;&lt;font color=&quot;#cccccc&quot;&gt;%c4Description%&lt;/font&gt;&lt;/div&gt;" id="6bDfexBDMjg7O7AECw8N-5">
          <mxCell style="html=1;fontSize=11;dashed=0;whiteSpace=wrap;fillColor=#083F75;strokeColor=#06315C;fontColor=#ffffff;shape=mxgraph.c4.person2;align=center;metaEdit=1;points=[[0.5,0,0],[1,0.5,0],[1,0.75,0],[0.75,1,0],[0.5,1,0],[0.25,1,0],[0,0.75,0],[0,0.5,0]];resizable=0;" parent="1" vertex="1">
            <mxGeometry x="70" y="895" width="200" height="180" as="geometry" />
          </mxCell>
        </object>
        <object placeholders="1" c4Name="Customer" c4Type="Person" c4Description="Description of external person." label="&lt;font style=&quot;font-size: 16px&quot;&gt;&lt;b&gt;%c4Name%&lt;/b&gt;&lt;/font&gt;&lt;div&gt;[%c4Type%]&lt;/div&gt;&lt;br&gt;&lt;div&gt;&lt;font style=&quot;font-size: 11px&quot;&gt;&lt;font color=&quot;#cccccc&quot;&gt;%c4Description%&lt;/font&gt;&lt;/div&gt;" id="6bDfexBDMjg7O7AECw8N-6">
          <mxCell style="html=1;fontSize=11;dashed=0;whiteSpace=wrap;fillColor=#6C6477;strokeColor=#4D4D4D;fontColor=#ffffff;shape=mxgraph.c4.person2;align=center;metaEdit=1;points=[[0.5,0,0],[1,0.5,0],[1,0.75,0],[0.75,1,0],[0.5,1,0],[0.25,1,0],[0,0.75,0],[0,0.5,0]];resizable=0;" parent="1" vertex="1">
            <mxGeometry x="80" y="250" width="200" height="180" as="geometry" />
          </mxCell>
        </object>
        <object placeholders="1" c4Name="API user" c4Type="Person" c4Description="Description of external person." label="&lt;font style=&quot;font-size: 16px&quot;&gt;&lt;b&gt;%c4Name%&lt;/b&gt;&lt;/font&gt;&lt;div&gt;[%c4Type%]&lt;/div&gt;&lt;br&gt;&lt;div&gt;&lt;font style=&quot;font-size: 11px&quot;&gt;&lt;font color=&quot;#cccccc&quot;&gt;%c4Description%&lt;/font&gt;&lt;/div&gt;" id="6bDfexBDMjg7O7AECw8N-7">
          <mxCell style="html=1;fontSize=11;dashed=0;whiteSpace=wrap;fillColor=#6C6477;strokeColor=#4D4D4D;fontColor=#ffffff;shape=mxgraph.c4.person2;align=center;metaEdit=1;points=[[0.5,0,0],[1,0.5,0],[1,0.75,0],[0.75,1,0],[0.5,1,0],[0.25,1,0],[0,0.75,0],[0,0.5,0]];resizable=0;" parent="1" vertex="1">
            <mxGeometry x="80" y="700" width="200" height="180" as="geometry" />
          </mxCell>
        </object>
        <object placeholders="1" c4Name="Shop API" c4Type="Container" c4Technology="SpringBoot" c4Description="- provide list of shop items&#xa;- receives user generated or uploaded 3d file&#xa;- save information about order from customer perspective&#xa;" label="&lt;font style=&quot;font-size: 16px&quot;&gt;&lt;b&gt;%c4Name%&lt;/b&gt;&lt;/font&gt;&lt;div&gt;[%c4Type%: %c4Technology%]&lt;/div&gt;&lt;br&gt;&lt;div&gt;&lt;font style=&quot;font-size: 11px&quot;&gt;&lt;font color=&quot;#E6E6E6&quot;&gt;%c4Description%&lt;/font&gt;&lt;/div&gt;" id="6bDfexBDMjg7O7AECw8N-8">
          <mxCell style="rounded=1;whiteSpace=wrap;html=1;fontSize=11;labelBackgroundColor=none;fillColor=#23A2D9;fontColor=#ffffff;align=center;arcSize=10;strokeColor=#0E7DAD;metaEdit=1;resizable=0;points=[[0.25,0,0],[0.5,0,0],[0.75,0,0],[1,0.25,0],[1,0.5,0],[1,0.75,0],[0.75,1,0],[0.5,1,0],[0.25,1,0],[0,0.75,0],[0,0.5,0],[0,0.25,0]];" parent="1" vertex="1">
            <mxGeometry x="910" y="280" width="240" height="120" as="geometry" />
          </mxCell>
        </object>
        <mxCell id="4iiRHGs6QgPylpO3pdiK-115" style="edgeStyle=orthogonalEdgeStyle;rounded=0;orthogonalLoop=1;jettySize=auto;html=1;exitX=1;exitY=0.5;exitDx=0;exitDy=0;exitPerimeter=0;" edge="1" parent="1" source="6bDfexBDMjg7O7AECw8N-9" target="4iiRHGs6QgPylpO3pdiK-113">
          <mxGeometry relative="1" as="geometry" />
        </mxCell>
        <object placeholders="1" c4Name="CRM" c4Type="Container" c4Technology="Vue, Typescript" c4Description="Description of web browser container role/responsibility." label="&lt;font style=&quot;font-size: 16px&quot;&gt;&lt;b&gt;%c4Name%&lt;/b&gt;&lt;/font&gt;&lt;div&gt;[%c4Type%:&amp;nbsp;%c4Technology%]&lt;/div&gt;&lt;br&gt;&lt;div&gt;&lt;font style=&quot;font-size: 11px&quot;&gt;&lt;font color=&quot;#E6E6E6&quot;&gt;%c4Description%&lt;/font&gt;&lt;/div&gt;" id="6bDfexBDMjg7O7AECw8N-9">
          <mxCell style="shape=mxgraph.c4.webBrowserContainer2;whiteSpace=wrap;html=1;boundedLbl=1;rounded=0;labelBackgroundColor=none;strokeColor=#118ACD;fillColor=#23A2D9;strokeColor=#118ACD;strokeColor2=#0E7DAD;fontSize=12;fontColor=#ffffff;align=center;metaEdit=1;points=[[0.5,0,0],[1,0.25,0],[1,0.5,0],[1,0.75,0],[0.5,1,0],[0,0.75,0],[0,0.5,0],[0,0.25,0]];resizable=0;" parent="1" vertex="1">
            <mxGeometry x="350" y="450" width="240" height="160" as="geometry" />
          </mxCell>
        </object>
        <object placeholders="1" c4Name="CRM API" c4Type="Container" c4Technology="SpringBoot" c4Description="Description of container role/responsibility." label="&lt;font style=&quot;font-size: 16px&quot;&gt;&lt;b&gt;%c4Name%&lt;/b&gt;&lt;/font&gt;&lt;div&gt;[%c4Type%: %c4Technology%]&lt;/div&gt;&lt;br&gt;&lt;div&gt;&lt;font style=&quot;font-size: 11px&quot;&gt;&lt;font color=&quot;#E6E6E6&quot;&gt;%c4Description%&lt;/font&gt;&lt;/div&gt;" id="6bDfexBDMjg7O7AECw8N-10">
          <mxCell style="rounded=1;whiteSpace=wrap;html=1;fontSize=11;labelBackgroundColor=none;fillColor=#23A2D9;fontColor=#ffffff;align=center;arcSize=10;strokeColor=#0E7DAD;metaEdit=1;resizable=0;points=[[0.25,0,0],[0.5,0,0],[0.75,0,0],[1,0.25,0],[1,0.5,0],[1,0.75,0],[0.75,1,0],[0.5,1,0],[0.25,1,0],[0,0.75,0],[0,0.5,0],[0,0.25,0]];" parent="1" vertex="1">
            <mxGeometry x="1090" y="550" width="240" height="120" as="geometry" />
          </mxCell>
        </object>
        <object placeholders="1" c4Name="Shop DB" c4Type="Container" c4Technology="PostgreSQL" c4Description="Holds main information about work with customers and its orders&#xa;" label="&lt;font style=&quot;font-size: 16px&quot;&gt;&lt;b&gt;%c4Name%&lt;/b&gt;&lt;/font&gt;&lt;div&gt;[%c4Type%:&amp;nbsp;%c4Technology%]&lt;/div&gt;&lt;br&gt;&lt;div&gt;&lt;font style=&quot;font-size: 11px&quot;&gt;&lt;font color=&quot;#E6E6E6&quot;&gt;%c4Description%&lt;/font&gt;&lt;/div&gt;" id="6bDfexBDMjg7O7AECw8N-11">
          <mxCell style="shape=cylinder3;size=20;whiteSpace=wrap;html=1;boundedLbl=1;rounded=0;labelBackgroundColor=none;fillColor=#23A2D9;fontSize=12;fontColor=#ffffff;align=center;strokeColor=#0E7DAD;metaEdit=1;points=[[0.5,0,0],[1,0.25,0],[1,0.5,0],[1,0.75,0],[0.5,1,0],[0,0.75,0],[0,0.5,0],[0,0.25,0]];resizable=0;" parent="1" vertex="1">
            <mxGeometry x="1400" y="280" width="240" height="120" as="geometry" />
          </mxCell>
        </object>
        <mxCell id="6bDfexBDMjg7O7AECw8N-12" style="edgeStyle=orthogonalEdgeStyle;rounded=0;orthogonalLoop=1;jettySize=auto;html=1;entryX=0.196;entryY=1.008;entryDx=0;entryDy=0;entryPerimeter=0;" parent="1" source="6bDfexBDMjg7O7AECw8N-10" target="6bDfexBDMjg7O7AECw8N-11" edge="1">
          <mxGeometry relative="1" as="geometry">
            <Array as="points">
              <mxPoint x="1190" y="430" />
              <mxPoint x="1447" y="430" />
            </Array>
          </mxGeometry>
        </mxCell>
        <mxCell id="6bDfexBDMjg7O7AECw8N-13" style="edgeStyle=orthogonalEdgeStyle;rounded=0;orthogonalLoop=1;jettySize=auto;html=1;entryX=0;entryY=0.5;entryDx=0;entryDy=0;entryPerimeter=0;" parent="1" source="6bDfexBDMjg7O7AECw8N-8" target="6bDfexBDMjg7O7AECw8N-11" edge="1">
          <mxGeometry relative="1" as="geometry" />
        </mxCell>
        <mxCell id="6bDfexBDMjg7O7AECw8N-16" style="edgeStyle=orthogonalEdgeStyle;rounded=0;orthogonalLoop=1;jettySize=auto;html=1;entryX=0.767;entryY=1;entryDx=0;entryDy=0;entryPerimeter=0;exitX=0.75;exitY=1;exitDx=0;exitDy=0;exitPerimeter=0;startArrow=classic;startFill=1;" parent="1" source="6bDfexBDMjg7O7AECw8N-10" target="6bDfexBDMjg7O7AECw8N-2" edge="1">
          <mxGeometry relative="1" as="geometry" />
        </mxCell>
        <mxCell id="6bDfexBDMjg7O7AECw8N-17" style="edgeStyle=orthogonalEdgeStyle;rounded=0;orthogonalLoop=1;jettySize=auto;html=1;entryX=0.617;entryY=-0.004;entryDx=0;entryDy=0;entryPerimeter=0;startArrow=classic;startFill=1;" parent="1" source="6bDfexBDMjg7O7AECw8N-1" target="6bDfexBDMjg7O7AECw8N-2" edge="1">
          <mxGeometry relative="1" as="geometry" />
        </mxCell>
        <object placeholders="1" c4Name="Jewerly Store System" c4Type="SystemScopeBoundary" c4Application="Software System" label="&lt;font style=&quot;font-size: 16px&quot;&gt;&lt;b&gt;&lt;div style=&quot;text-align: left&quot;&gt;%c4Name%&lt;/div&gt;&lt;/b&gt;&lt;/font&gt;&lt;div style=&quot;text-align: left&quot;&gt;[%c4Application%]&lt;/div&gt;" id="6bDfexBDMjg7O7AECw8N-19">
          <mxCell style="rounded=1;fontSize=11;whiteSpace=wrap;html=1;dashed=1;arcSize=20;fillColor=none;strokeColor=#666666;fontColor=#333333;labelBackgroundColor=none;align=left;verticalAlign=bottom;labelBorderColor=none;spacingTop=0;spacing=10;dashPattern=8 4;metaEdit=1;rotatable=0;perimeter=rectanglePerimeter;noLabel=0;labelPadding=0;allowArrows=0;connectable=0;expand=0;recursiveResize=0;editable=1;pointerEvents=0;absoluteArcSize=1;points=[[0.25,0,0],[0.5,0,0],[0.75,0,0],[1,0.25,0],[1,0.5,0],[1,0.75,0],[0.75,1,0],[0.5,1,0],[0.25,1,0],[0,0.75,0],[0,0.5,0],[0,0.25,0]];" parent="1" vertex="1">
            <mxGeometry x="310" y="220" width="2520" height="1290" as="geometry" />
          </mxCell>
        </object>
        <mxCell id="6bDfexBDMjg7O7AECw8N-21" style="edgeStyle=orthogonalEdgeStyle;rounded=0;orthogonalLoop=1;jettySize=auto;html=1;entryX=0;entryY=0.5;entryDx=0;entryDy=0;entryPerimeter=0;" parent="1" source="6bDfexBDMjg7O7AECw8N-7" target="4iiRHGs6QgPylpO3pdiK-113" edge="1">
          <mxGeometry relative="1" as="geometry" />
        </mxCell>
        <mxCell id="6bDfexBDMjg7O7AECw8N-23" style="edgeStyle=orthogonalEdgeStyle;rounded=0;orthogonalLoop=1;jettySize=auto;html=1;entryX=0;entryY=0.5;entryDx=0;entryDy=0;entryPerimeter=0;" parent="1" source="6bDfexBDMjg7O7AECw8N-6" target="6bDfexBDMjg7O7AECw8N-3" edge="1">
          <mxGeometry relative="1" as="geometry" />
        </mxCell>
        <mxCell id="6bDfexBDMjg7O7AECw8N-29" value="" style="edgeStyle=orthogonalEdgeStyle;rounded=0;orthogonalLoop=1;jettySize=auto;html=1;startArrow=classic;startFill=1;endArrow=none;endFill=0;" parent="1" source="6bDfexBDMjg7O7AECw8N-25" target="6bDfexBDMjg7O7AECw8N-10" edge="1">
          <mxGeometry relative="1" as="geometry">
            <Array as="points">
              <mxPoint x="1020" y="750" />
              <mxPoint x="1210" y="750" />
            </Array>
          </mxGeometry>
        </mxCell>
        <object placeholders="1" c4Name="3d files storage" c4Type="Container" c4Technology="S3-based storage" c4Description="stores 3d files so that can be calculated" label="&lt;font style=&quot;font-size: 16px&quot;&gt;&lt;b&gt;%c4Name%&lt;/b&gt;&lt;/font&gt;&lt;div&gt;[%c4Type%: %c4Technology%]&lt;/div&gt;&lt;br&gt;&lt;div&gt;&lt;font style=&quot;font-size: 11px&quot;&gt;&lt;font color=&quot;#E6E6E6&quot;&gt;%c4Description%&lt;/font&gt;&lt;/div&gt;" id="6bDfexBDMjg7O7AECw8N-25">
          <mxCell style="rounded=1;whiteSpace=wrap;html=1;fontSize=11;labelBackgroundColor=none;fillColor=#23A2D9;fontColor=#ffffff;align=center;arcSize=10;strokeColor=#0E7DAD;metaEdit=1;resizable=0;points=[[0.25,0,0],[0.5,0,0],[0.75,0,0],[1,0.25,0],[1,0.5,0],[1,0.75,0],[0.75,1,0],[0.5,1,0],[0.25,1,0],[0,0.75,0],[0,0.5,0],[0,0.25,0]];" parent="1" vertex="1">
            <mxGeometry x="900" y="780" width="240" height="120" as="geometry" />
          </mxCell>
        </object>
        <mxCell id="6bDfexBDMjg7O7AECw8N-26" style="edgeStyle=orthogonalEdgeStyle;rounded=0;orthogonalLoop=1;jettySize=auto;html=1;entryX=0;entryY=0.25;entryDx=0;entryDy=0;entryPerimeter=0;" parent="1" source="6bDfexBDMjg7O7AECw8N-1" target="6bDfexBDMjg7O7AECw8N-25" edge="1">
          <mxGeometry relative="1" as="geometry">
            <Array as="points">
              <mxPoint x="730" y="980" />
              <mxPoint x="730" y="810" />
            </Array>
          </mxGeometry>
        </mxCell>
        <mxCell id="6bDfexBDMjg7O7AECw8N-27" style="edgeStyle=orthogonalEdgeStyle;rounded=0;orthogonalLoop=1;jettySize=auto;html=1;entryX=0.25;entryY=0;entryDx=0;entryDy=0;entryPerimeter=0;exitX=0.25;exitY=1;exitDx=0;exitDy=0;exitPerimeter=0;" parent="1" source="6bDfexBDMjg7O7AECw8N-8" target="6bDfexBDMjg7O7AECw8N-25" edge="1">
          <mxGeometry relative="1" as="geometry">
            <mxPoint x="970" y="430" as="sourcePoint" />
            <mxPoint x="1170.08" y="790.96" as="targetPoint" />
            <Array as="points">
              <mxPoint x="960" y="400" />
            </Array>
          </mxGeometry>
        </mxCell>
        <mxCell id="6bDfexBDMjg7O7AECw8N-28" value="uploads files" style="edgeLabel;html=1;align=center;verticalAlign=middle;resizable=0;points=[];" parent="6bDfexBDMjg7O7AECw8N-27" vertex="1" connectable="0">
          <mxGeometry x="-0.3713" y="-2" relative="1" as="geometry">
            <mxPoint x="-8" y="-102" as="offset" />
          </mxGeometry>
        </mxCell>
        <object placeholders="1" c4Name="Sell managers" c4Type="Person" c4Description="Operates with order, confirms manufacturing for the user" label="&lt;font style=&quot;font-size: 16px&quot;&gt;&lt;b&gt;%c4Name%&lt;/b&gt;&lt;/font&gt;&lt;div&gt;[%c4Type%]&lt;/div&gt;&lt;br&gt;&lt;div&gt;&lt;font style=&quot;font-size: 11px&quot;&gt;&lt;font color=&quot;#cccccc&quot;&gt;%c4Description%&lt;/font&gt;&lt;/div&gt;" id="6bDfexBDMjg7O7AECw8N-30">
          <mxCell style="html=1;fontSize=11;dashed=0;whiteSpace=wrap;fillColor=#083F75;strokeColor=#06315C;fontColor=#ffffff;shape=mxgraph.c4.person2;align=center;metaEdit=1;points=[[0.5,0,0],[1,0.5,0],[1,0.75,0],[0.75,1,0],[0.5,1,0],[0.25,1,0],[0,0.75,0],[0,0.5,0]];resizable=0;" parent="1" vertex="1">
            <mxGeometry x="80" y="480" width="200" height="180" as="geometry" />
          </mxCell>
        </object>
        <mxCell id="6bDfexBDMjg7O7AECw8N-31" style="edgeStyle=orthogonalEdgeStyle;rounded=0;orthogonalLoop=1;jettySize=auto;html=1;entryX=0;entryY=0.25;entryDx=0;entryDy=0;entryPerimeter=0;" parent="1" source="6bDfexBDMjg7O7AECw8N-30" target="6bDfexBDMjg7O7AECw8N-9" edge="1">
          <mxGeometry relative="1" as="geometry" />
        </mxCell>
        <object placeholders="1" c4Name="MES db" c4Type="Container" c4Technology="PostgreSQL" c4Description="Holds information about orders, its assignments on operators and statuses from MES perspective" label="&lt;font style=&quot;font-size: 16px&quot;&gt;&lt;b&gt;%c4Name%&lt;/b&gt;&lt;/font&gt;&lt;div&gt;[%c4Type%:&amp;nbsp;%c4Technology%]&lt;/div&gt;&lt;br&gt;&lt;div&gt;&lt;font style=&quot;font-size: 11px&quot;&gt;&lt;font color=&quot;#E6E6E6&quot;&gt;%c4Description%&lt;/font&gt;&lt;/div&gt;" id="6bDfexBDMjg7O7AECw8N-32">
          <mxCell style="shape=cylinder3;size=15;whiteSpace=wrap;html=1;boundedLbl=1;rounded=0;labelBackgroundColor=none;fillColor=#23A2D9;fontSize=12;fontColor=#ffffff;align=center;strokeColor=#0E7DAD;metaEdit=1;points=[[0.5,0,0],[1,0.25,0],[1,0.5,0],[1,0.75,0],[0.5,1,0],[0,0.75,0],[0,0.5,0],[0,0.25,0]];resizable=0;" parent="1" vertex="1">
            <mxGeometry x="1414" y="1060" width="240" height="120" as="geometry" />
          </mxCell>
        </object>
        <mxCell id="6bDfexBDMjg7O7AECw8N-33" style="edgeStyle=orthogonalEdgeStyle;rounded=0;orthogonalLoop=1;jettySize=auto;html=1;entryX=0.004;entryY=0.567;entryDx=0;entryDy=0;entryPerimeter=0;" parent="1" source="6bDfexBDMjg7O7AECw8N-1" target="6bDfexBDMjg7O7AECw8N-32" edge="1">
          <mxGeometry relative="1" as="geometry">
            <mxPoint x="1380" y="1130" as="targetPoint" />
            <Array as="points">
              <mxPoint x="1092" y="990" />
              <mxPoint x="1092" y="1128" />
            </Array>
          </mxGeometry>
        </mxCell>
        <object placeholders="1" c4Name="CRM API" c4Type="Container" c4Technology="SpringBoot" c4Description="Description of container role/responsibility." label="&lt;font style=&quot;font-size: 16px&quot;&gt;&lt;b&gt;%c4Name%&lt;/b&gt;&lt;/font&gt;&lt;div&gt;[%c4Type%: %c4Technology%]&lt;/div&gt;&lt;br&gt;&lt;div&gt;&lt;font style=&quot;font-size: 11px&quot;&gt;&lt;font color=&quot;#E6E6E6&quot;&gt;%c4Description%&lt;/font&gt;&lt;/div&gt;" id="4iiRHGs6QgPylpO3pdiK-1">
          <mxCell style="rounded=1;whiteSpace=wrap;html=1;fontSize=11;labelBackgroundColor=none;fillColor=#23A2D9;fontColor=#ffffff;align=center;arcSize=10;strokeColor=#0E7DAD;metaEdit=1;resizable=0;points=[[0.25,0,0],[0.5,0,0],[0.75,0,0],[1,0.25,0],[1,0.5,0],[1,0.75,0],[0.75,1,0],[0.5,1,0],[0.25,1,0],[0,0.75,0],[0,0.5,0],[0,0.25,0]];" vertex="1" parent="1">
            <mxGeometry x="1290" y="840" width="240" height="120" as="geometry" />
          </mxCell>
        </object>
        <object placeholders="1" c4Name="Observability_db" c4Type="Container" c4Technology="ClickHouse" c4Description="metrics and traces storage" label="&lt;font style=&quot;font-size: 16px&quot;&gt;&lt;b&gt;%c4Name%&lt;/b&gt;&lt;/font&gt;&lt;div&gt;[%c4Type%:&amp;nbsp;%c4Technology%]&lt;/div&gt;&lt;br&gt;&lt;div&gt;&lt;font style=&quot;font-size: 11px&quot;&gt;&lt;font color=&quot;#E6E6E6&quot;&gt;%c4Description%&lt;/font&gt;&lt;/div&gt;" id="4iiRHGs6QgPylpO3pdiK-2">
          <mxCell style="shape=cylinder3;size=15;whiteSpace=wrap;html=1;boundedLbl=1;rounded=0;labelBackgroundColor=none;fillColor=#e51400;fontSize=12;align=center;strokeColor=#B20000;metaEdit=1;points=[[0.5,0,0],[1,0.25,0],[1,0.5,0],[1,0.75,0],[0.5,1,0],[0,0.75,0],[0,0.5,0],[0,0.25,0]];resizable=0;fontColor=#ffffff;" vertex="1" parent="1">
            <mxGeometry x="1780" y="450" width="240" height="120" as="geometry" />
          </mxCell>
        </object>
        <object placeholders="1" c4Name="OTel Collector" c4Type="Container" c4Technology="" c4Description="Collects traces from agents" label="&lt;font style=&quot;font-size: 16px&quot;&gt;&lt;b&gt;%c4Name%&lt;/b&gt;&lt;/font&gt;&lt;div&gt;[%c4Type%: %c4Technology%]&lt;/div&gt;&lt;br&gt;&lt;div&gt;&lt;font style=&quot;font-size: 11px&quot;&gt;&lt;font color=&quot;#E6E6E6&quot;&gt;%c4Description%&lt;/font&gt;&lt;/div&gt;" id="4iiRHGs6QgPylpO3pdiK-3">
          <mxCell style="rounded=1;whiteSpace=wrap;html=1;fontSize=11;labelBackgroundColor=none;fillColor=#e51400;fontColor=#ffffff;align=center;arcSize=10;strokeColor=#B20000;metaEdit=1;resizable=0;points=[[0.25,0,0],[0.5,0,0],[0.75,0,0],[1,0.25,0],[1,0.5,0],[1,0.75,0],[0.75,1,0],[0.5,1,0],[0.25,1,0],[0,0.75,0],[0,0.5,0],[0,0.25,0]];" vertex="1" parent="1">
            <mxGeometry x="1425" y="450" width="240" height="120" as="geometry" />
          </mxCell>
        </object>
        <object placeholders="1" c4Name="Jaeger Ingestor" c4Type="Container" c4Technology="" c4Description="Takes traces from mq" label="&lt;font style=&quot;font-size: 16px&quot;&gt;&lt;b&gt;%c4Name%&lt;/b&gt;&lt;/font&gt;&lt;div&gt;[%c4Type%: %c4Technology%]&lt;/div&gt;&lt;br&gt;&lt;div&gt;&lt;font style=&quot;font-size: 11px&quot;&gt;&lt;font color=&quot;#E6E6E6&quot;&gt;%c4Description%&lt;/font&gt;&lt;/div&gt;" id="4iiRHGs6QgPylpO3pdiK-4">
          <mxCell style="rounded=1;whiteSpace=wrap;html=1;fontSize=11;labelBackgroundColor=none;fillColor=#e51400;fontColor=#ffffff;align=center;arcSize=10;strokeColor=#B20000;metaEdit=1;resizable=0;points=[[0.25,0,0],[0.5,0,0],[0.75,0,0],[1,0.25,0],[1,0.5,0],[1,0.75,0],[0.75,1,0],[0.5,1,0],[0.25,1,0],[0,0.75,0],[0,0.5,0],[0,0.25,0]];" vertex="1" parent="1">
            <mxGeometry x="1827.5" y="640" width="240" height="120" as="geometry" />
          </mxCell>
        </object>
        <object placeholders="1" c4Name="Jaeger Query" c4Type="Container" c4Technology="" c4Description="Read/write traces in storage" label="&lt;font style=&quot;font-size: 16px&quot;&gt;&lt;b&gt;%c4Name%&lt;/b&gt;&lt;/font&gt;&lt;div&gt;[%c4Type%: %c4Technology%]&lt;/div&gt;&lt;br&gt;&lt;div&gt;&lt;font style=&quot;font-size: 11px&quot;&gt;&lt;font color=&quot;#E6E6E6&quot;&gt;%c4Description%&lt;/font&gt;&lt;/div&gt;" id="4iiRHGs6QgPylpO3pdiK-5">
          <mxCell style="rounded=1;whiteSpace=wrap;html=1;fontSize=11;labelBackgroundColor=none;fillColor=#e51400;fontColor=#ffffff;align=center;arcSize=10;strokeColor=#B20000;metaEdit=1;resizable=0;points=[[0.25,0,0],[0.5,0,0],[0.75,0,0],[1,0.25,0],[1,0.5,0],[1,0.75,0],[0.75,1,0],[0.5,1,0],[0.25,1,0],[0,0.75,0],[0,0.5,0],[0,0.25,0]];" vertex="1" parent="1">
            <mxGeometry x="2080" y="450" width="240" height="120" as="geometry" />
          </mxCell>
        </object>
        <mxCell id="4iiRHGs6QgPylpO3pdiK-134" style="edgeStyle=orthogonalEdgeStyle;rounded=0;orthogonalLoop=1;jettySize=auto;html=1;exitX=0.5;exitY=1;exitDx=0;exitDy=0;exitPerimeter=0;" edge="1" parent="1" source="4iiRHGs6QgPylpO3pdiK-6" target="4iiRHGs6QgPylpO3pdiK-127">
          <mxGeometry relative="1" as="geometry" />
        </mxCell>
        <mxCell id="4iiRHGs6QgPylpO3pdiK-145" value="HTTPS REST" style="edgeLabel;html=1;align=center;verticalAlign=middle;resizable=0;points=[];" vertex="1" connectable="0" parent="4iiRHGs6QgPylpO3pdiK-134">
          <mxGeometry x="-0.175" y="3" relative="1" as="geometry">
            <mxPoint as="offset" />
          </mxGeometry>
        </mxCell>
        <object placeholders="1" c4Name="Jaeger UI" c4Type="Container" c4Technology="web" c4Description="UI for traces" label="&lt;font style=&quot;font-size: 16px&quot;&gt;&lt;b&gt;%c4Name%&lt;/b&gt;&lt;/font&gt;&lt;div&gt;[%c4Type%: %c4Technology%]&lt;/div&gt;&lt;br&gt;&lt;div&gt;&lt;font style=&quot;font-size: 11px&quot;&gt;&lt;font color=&quot;#E6E6E6&quot;&gt;%c4Description%&lt;/font&gt;&lt;/div&gt;" id="4iiRHGs6QgPylpO3pdiK-6">
          <mxCell style="rounded=1;whiteSpace=wrap;html=1;fontSize=11;labelBackgroundColor=none;fillColor=#e51400;fontColor=#ffffff;align=center;arcSize=10;strokeColor=#B20000;metaEdit=1;resizable=0;points=[[0.25,0,0],[0.5,0,0],[0.75,0,0],[1,0.25,0],[1,0.5,0],[1,0.75,0],[0.75,1,0],[0.5,1,0],[0.25,1,0],[0,0.75,0],[0,0.5,0],[0,0.25,0]];" vertex="1" parent="1">
            <mxGeometry x="2440" y="250" width="240" height="120" as="geometry" />
          </mxCell>
        </object>
        <object placeholders="1" c4Name="Order Journey Analyzer" c4Type="Container" c4Technology="SpringBoot" c4Description="Analyze order movement traces and prepares alerts" label="&lt;font style=&quot;font-size: 16px&quot;&gt;&lt;b&gt;%c4Name%&lt;/b&gt;&lt;/font&gt;&lt;div&gt;[%c4Type%: %c4Technology%]&lt;/div&gt;&lt;br&gt;&lt;div&gt;&lt;font style=&quot;font-size: 11px&quot;&gt;&lt;font color=&quot;#E6E6E6&quot;&gt;%c4Description%&lt;/font&gt;&lt;/div&gt;" id="4iiRHGs6QgPylpO3pdiK-7">
          <mxCell style="rounded=1;whiteSpace=wrap;html=1;fontSize=11;labelBackgroundColor=none;fillColor=#60a917;fontColor=#ffffff;align=center;arcSize=10;strokeColor=#2D7600;metaEdit=1;resizable=0;points=[[0.25,0,0],[0.5,0,0],[0.75,0,0],[1,0.25,0],[1,0.5,0],[1,0.75,0],[0.75,1,0],[0.5,1,0],[0.25,1,0],[0,0.75,0],[0,0.5,0],[0,0.25,0]];" vertex="1" parent="1">
            <mxGeometry x="1780" y="800" width="240" height="120" as="geometry" />
          </mxCell>
        </object>
        <mxCell id="4iiRHGs6QgPylpO3pdiK-9" value="&lt;font style=&quot;font-size: 13px;&quot;&gt;&lt;b&gt;OTel Agent&amp;nbsp;&lt;/b&gt;&lt;/font&gt;&lt;div&gt;&lt;font style=&quot;font-size: 13px;&quot;&gt;&lt;b&gt;sidecar&lt;/b&gt;&lt;/font&gt;&lt;div&gt;&lt;div&gt;sends traces to collector&lt;/div&gt;&lt;/div&gt;&lt;/div&gt;" style="rounded=1;whiteSpace=wrap;html=1;fillColor=#e51400;fontColor=#ffffff;strokeColor=#B20000;" vertex="1" parent="1">
          <mxGeometry x="980" y="510" width="140" height="50" as="geometry" />
        </mxCell>
        <mxCell id="4iiRHGs6QgPylpO3pdiK-10" value="&lt;font style=&quot;font-size: 13px;&quot;&gt;&lt;b&gt;OTel Agent&amp;nbsp;&lt;/b&gt;&lt;/font&gt;&lt;div&gt;&lt;font style=&quot;font-size: 13px;&quot;&gt;&lt;b&gt;sidecar&lt;/b&gt;&lt;/font&gt;&lt;div&gt;&lt;div&gt;sends traces to collector&lt;/div&gt;&lt;/div&gt;&lt;/div&gt;" style="rounded=1;whiteSpace=wrap;html=1;fillColor=#e51400;fontColor=#ffffff;strokeColor=#B20000;" vertex="1" parent="1">
          <mxGeometry x="810" y="910" width="140" height="50" as="geometry" />
        </mxCell>
        <mxCell id="4iiRHGs6QgPylpO3pdiK-136" value="" style="edgeStyle=orthogonalEdgeStyle;rounded=0;orthogonalLoop=1;jettySize=auto;html=1;" edge="1" parent="1" source="4iiRHGs6QgPylpO3pdiK-12" target="4iiRHGs6QgPylpO3pdiK-6">
          <mxGeometry relative="1" as="geometry" />
        </mxCell>
        <object placeholders="1" c4Name="DevOps" c4Type="Person" c4Description="Checks traces" label="&lt;font style=&quot;font-size: 16px&quot;&gt;&lt;b&gt;%c4Name%&lt;/b&gt;&lt;/font&gt;&lt;div&gt;[%c4Type%]&lt;/div&gt;&lt;br&gt;&lt;div&gt;&lt;font style=&quot;font-size: 11px&quot;&gt;&lt;font color=&quot;#cccccc&quot;&gt;%c4Description%&lt;/font&gt;&lt;/div&gt;" id="4iiRHGs6QgPylpO3pdiK-12">
          <mxCell style="html=1;fontSize=11;dashed=0;whiteSpace=wrap;fillColor=#083F75;strokeColor=#06315C;fontColor=#ffffff;shape=mxgraph.c4.person2;align=center;metaEdit=1;points=[[0.5,0,0],[1,0.5,0],[1,0.75,0],[0.75,1,0],[0.5,1,0],[0.25,1,0],[0,0.75,0],[0,0.5,0]];resizable=0;" vertex="1" parent="1">
            <mxGeometry x="2460" y="20" width="200" height="180" as="geometry" />
          </mxCell>
        </object>
        <object placeholders="1" c4Name="Grafana" c4Type="Container" c4Technology="Grafana" c4Description="Dashboards and alerts lists for metrics and traces" label="&lt;font style=&quot;font-size: 16px&quot;&gt;&lt;b&gt;%c4Name%&lt;/b&gt;&lt;/font&gt;&lt;div&gt;[%c4Type%: %c4Technology%]&lt;/div&gt;&lt;br&gt;&lt;div&gt;&lt;font style=&quot;font-size: 11px&quot;&gt;&lt;font color=&quot;#E6E6E6&quot;&gt;%c4Description%&lt;/font&gt;&lt;/div&gt;" id="4iiRHGs6QgPylpO3pdiK-13">
          <mxCell style="rounded=1;whiteSpace=wrap;html=1;fontSize=11;labelBackgroundColor=none;fillColor=#60a917;fontColor=#ffffff;align=center;arcSize=10;strokeColor=#2D7600;metaEdit=1;resizable=0;points=[[0.25,0,0],[0.5,0,0],[0.75,0,0],[1,0.25,0],[1,0.5,0],[1,0.75,0],[0.75,1,0],[0.5,1,0],[0.25,1,0],[0,0.75,0],[0,0.5,0],[0,0.25,0]];" vertex="1" parent="1">
            <mxGeometry x="2150" y="640" width="240" height="120" as="geometry" />
          </mxCell>
        </object>
        <mxCell id="4iiRHGs6QgPylpO3pdiK-14" style="edgeStyle=orthogonalEdgeStyle;rounded=0;orthogonalLoop=1;jettySize=auto;html=1;exitX=0;exitY=0.75;exitDx=0;exitDy=0;exitPerimeter=0;entryX=0.388;entryY=0.996;entryDx=0;entryDy=0;entryPerimeter=0;" edge="1" parent="1" source="4iiRHGs6QgPylpO3pdiK-3" target="6bDfexBDMjg7O7AECw8N-2">
          <mxGeometry relative="1" as="geometry" />
        </mxCell>
        <mxCell id="4iiRHGs6QgPylpO3pdiK-15" style="edgeStyle=orthogonalEdgeStyle;rounded=0;orthogonalLoop=1;jettySize=auto;html=1;exitX=1;exitY=0.5;exitDx=0;exitDy=0;entryX=0;entryY=0.25;entryDx=0;entryDy=0;entryPerimeter=0;" edge="1" parent="1" target="4iiRHGs6QgPylpO3pdiK-3">
          <mxGeometry relative="1" as="geometry">
            <mxPoint x="1250" y="280" as="sourcePoint" />
            <Array as="points">
              <mxPoint x="1350" y="280" />
              <mxPoint x="1350" y="480" />
            </Array>
          </mxGeometry>
        </mxCell>
        <mxCell id="4iiRHGs6QgPylpO3pdiK-34" value="HTTPS REST/gRPC" style="edgeLabel;html=1;align=center;verticalAlign=middle;resizable=0;points=[];" vertex="1" connectable="0" parent="4iiRHGs6QgPylpO3pdiK-15">
          <mxGeometry x="0.6919" y="1" relative="1" as="geometry">
            <mxPoint x="-87" y="11" as="offset" />
          </mxGeometry>
        </mxCell>
        <mxCell id="4iiRHGs6QgPylpO3pdiK-18" style="edgeStyle=orthogonalEdgeStyle;rounded=0;orthogonalLoop=1;jettySize=auto;html=1;entryX=0;entryY=0.25;entryDx=0;entryDy=0;entryPerimeter=0;exitX=0.146;exitY=0.016;exitDx=0;exitDy=0;exitPerimeter=0;" edge="1" parent="1" source="4iiRHGs6QgPylpO3pdiK-10" target="4iiRHGs6QgPylpO3pdiK-3">
          <mxGeometry relative="1" as="geometry">
            <mxPoint x="830" y="905" as="sourcePoint" />
            <Array as="points">
              <mxPoint x="830" y="905" />
              <mxPoint x="830" y="905" />
              <mxPoint x="830" y="480" />
            </Array>
          </mxGeometry>
        </mxCell>
        <mxCell id="4iiRHGs6QgPylpO3pdiK-31" style="edgeStyle=orthogonalEdgeStyle;rounded=0;orthogonalLoop=1;jettySize=auto;html=1;exitX=0.5;exitY=0;exitDx=0;exitDy=0;exitPerimeter=0;entryX=0.465;entryY=1.025;entryDx=0;entryDy=0;entryPerimeter=0;" edge="1" parent="1" source="4iiRHGs6QgPylpO3pdiK-4" target="4iiRHGs6QgPylpO3pdiK-2">
          <mxGeometry relative="1" as="geometry" />
        </mxCell>
        <mxCell id="4iiRHGs6QgPylpO3pdiK-32" style="edgeStyle=orthogonalEdgeStyle;rounded=0;orthogonalLoop=1;jettySize=auto;html=1;exitX=0;exitY=0.5;exitDx=0;exitDy=0;exitPerimeter=0;entryX=1;entryY=0.5;entryDx=0;entryDy=0;entryPerimeter=0;" edge="1" parent="1" source="4iiRHGs6QgPylpO3pdiK-5" target="4iiRHGs6QgPylpO3pdiK-2">
          <mxGeometry relative="1" as="geometry" />
        </mxCell>
        <mxCell id="4iiRHGs6QgPylpO3pdiK-33" style="edgeStyle=orthogonalEdgeStyle;rounded=0;orthogonalLoop=1;jettySize=auto;html=1;exitX=0.5;exitY=0;exitDx=0;exitDy=0;exitPerimeter=0;entryX=0;entryY=0.5;entryDx=0;entryDy=0;entryPerimeter=0;" edge="1" parent="1" source="6bDfexBDMjg7O7AECw8N-2" target="4iiRHGs6QgPylpO3pdiK-7">
          <mxGeometry relative="1" as="geometry">
            <Array as="points">
              <mxPoint x="1750" y="700" />
              <mxPoint x="1750" y="860" />
            </Array>
          </mxGeometry>
        </mxCell>
        <object placeholders="1" c4Name="AlertsManager" c4Type="Container" c4Technology="Prometheus" c4Description="Manages alerts and notifies via tg, phone, etc" label="&lt;font style=&quot;font-size: 16px&quot;&gt;&lt;b&gt;%c4Name%&lt;/b&gt;&lt;/font&gt;&lt;div&gt;[%c4Type%: %c4Technology%]&lt;/div&gt;&lt;br&gt;&lt;div&gt;&lt;font style=&quot;font-size: 11px&quot;&gt;&lt;font color=&quot;#E6E6E6&quot;&gt;%c4Description%&lt;/font&gt;&lt;/div&gt;" id="4iiRHGs6QgPylpO3pdiK-35">
          <mxCell style="rounded=1;whiteSpace=wrap;html=1;fontSize=11;labelBackgroundColor=none;fillColor=#60a917;fontColor=#ffffff;align=center;arcSize=10;strokeColor=#2D7600;metaEdit=1;resizable=0;points=[[0.25,0,0],[0.5,0,0],[0.75,0,0],[1,0.25,0],[1,0.5,0],[1,0.75,0],[0.75,1,0],[0.5,1,0],[0.25,1,0],[0,0.75,0],[0,0.5,0],[0,0.25,0]];" vertex="1" parent="1">
            <mxGeometry x="1784" y="990" width="240" height="120" as="geometry" />
          </mxCell>
        </object>
        <mxCell id="4iiRHGs6QgPylpO3pdiK-36" style="edgeStyle=orthogonalEdgeStyle;rounded=0;orthogonalLoop=1;jettySize=auto;html=1;entryX=0.06;entryY=0.907;entryDx=0;entryDy=0;entryPerimeter=0;" edge="1" parent="1" target="4iiRHGs6QgPylpO3pdiK-2">
          <mxGeometry relative="1" as="geometry">
            <mxPoint x="1790" y="800" as="sourcePoint" />
            <Array as="points">
              <mxPoint x="1790" y="800" />
              <mxPoint x="1790" y="685" />
              <mxPoint x="1794" y="685" />
            </Array>
          </mxGeometry>
        </mxCell>
        <mxCell id="4iiRHGs6QgPylpO3pdiK-58" value="saves order&#39;s journey state" style="edgeLabel;html=1;align=center;verticalAlign=middle;resizable=0;points=[];" vertex="1" connectable="0" parent="4iiRHGs6QgPylpO3pdiK-36">
          <mxGeometry x="0.5582" y="1" relative="1" as="geometry">
            <mxPoint as="offset" />
          </mxGeometry>
        </mxCell>
        <mxCell id="4iiRHGs6QgPylpO3pdiK-38" style="edgeStyle=orthogonalEdgeStyle;rounded=0;orthogonalLoop=1;jettySize=auto;html=1;exitX=0;exitY=0.25;exitDx=0;exitDy=0;exitPerimeter=0;entryX=0.832;entryY=0.964;entryDx=0;entryDy=0;entryPerimeter=0;" edge="1" parent="1" source="4iiRHGs6QgPylpO3pdiK-13" target="4iiRHGs6QgPylpO3pdiK-2">
          <mxGeometry relative="1" as="geometry">
            <mxPoint x="1980" y="570" as="targetPoint" />
            <Array as="points">
              <mxPoint x="2120" y="670" />
              <mxPoint x="2120" y="620" />
              <mxPoint x="1980" y="620" />
            </Array>
          </mxGeometry>
        </mxCell>
        <mxCell id="4iiRHGs6QgPylpO3pdiK-39" style="edgeStyle=orthogonalEdgeStyle;rounded=0;orthogonalLoop=1;jettySize=auto;html=1;exitX=0.5;exitY=1;exitDx=0;exitDy=0;exitPerimeter=0;" edge="1" parent="1" source="4iiRHGs6QgPylpO3pdiK-7">
          <mxGeometry relative="1" as="geometry">
            <mxPoint x="1880" y="990" as="targetPoint" />
            <Array as="points">
              <mxPoint x="1900" y="960" />
              <mxPoint x="1880" y="960" />
              <mxPoint x="1880" y="990" />
            </Array>
          </mxGeometry>
        </mxCell>
        <mxCell id="4iiRHGs6QgPylpO3pdiK-42" value="HTTPS REST" style="edgeLabel;html=1;align=center;verticalAlign=middle;resizable=0;points=[];" vertex="1" connectable="0" parent="4iiRHGs6QgPylpO3pdiK-39">
          <mxGeometry x="-0.3193" y="5" relative="1" as="geometry">
            <mxPoint x="27" y="9" as="offset" />
          </mxGeometry>
        </mxCell>
        <mxCell id="4iiRHGs6QgPylpO3pdiK-87" style="edgeStyle=orthogonalEdgeStyle;rounded=0;orthogonalLoop=1;jettySize=auto;html=1;exitX=0.5;exitY=1;exitDx=0;exitDy=0;exitPerimeter=0;" edge="1" parent="1" source="4iiRHGs6QgPylpO3pdiK-40" target="4iiRHGs6QgPylpO3pdiK-74">
          <mxGeometry relative="1" as="geometry" />
        </mxCell>
        <object placeholders="1" c4Name="Developer" c4Type="Person" c4Description="- Grafana: checks metrics and alerts; &#xa;- AlertsManages: receives alerts notifications;&#xa;- Kibana: view logs and log alerts;" label="&lt;font style=&quot;font-size: 16px&quot;&gt;&lt;b&gt;%c4Name%&lt;/b&gt;&lt;/font&gt;&lt;div&gt;[%c4Type%]&lt;/div&gt;&lt;br&gt;&lt;div&gt;&lt;font style=&quot;font-size: 11px&quot;&gt;&lt;font color=&quot;#cccccc&quot;&gt;%c4Description%&lt;/font&gt;&lt;/div&gt;" id="4iiRHGs6QgPylpO3pdiK-40">
          <mxCell style="html=1;fontSize=11;dashed=0;whiteSpace=wrap;fillColor=#083F75;strokeColor=#06315C;fontColor=#ffffff;shape=mxgraph.c4.person2;align=center;metaEdit=1;points=[[0.5,0,0],[1,0.5,0],[1,0.75,0],[0.75,1,0],[0.5,1,0],[0.25,1,0],[0,0.75,0],[0,0.5,0]];resizable=0;" vertex="1" parent="1">
            <mxGeometry x="2590" y="860" width="200" height="180" as="geometry" />
          </mxCell>
        </object>
        <mxCell id="4iiRHGs6QgPylpO3pdiK-43" value="AMQP" style="edgeLabel;html=1;align=center;verticalAlign=middle;resizable=0;points=[];" vertex="1" connectable="0" parent="1">
          <mxGeometry x="1410" y="710" as="geometry" />
        </mxCell>
        <mxCell id="4iiRHGs6QgPylpO3pdiK-45" value="AMQP" style="edgeLabel;html=1;align=center;verticalAlign=middle;resizable=0;points=[];" vertex="1" connectable="0" parent="1">
          <mxGeometry x="1700" y="690" as="geometry" />
        </mxCell>
        <object placeholders="1" c4Name="Grafana UI" c4Type="Container" c4Technology="Web" c4Description="Dashboards and alerts lists for metrics and traces" label="&lt;font style=&quot;font-size: 16px&quot;&gt;&lt;b&gt;%c4Name%&lt;/b&gt;&lt;/font&gt;&lt;div&gt;[%c4Type%: %c4Technology%]&lt;/div&gt;&lt;br&gt;&lt;div&gt;&lt;font style=&quot;font-size: 11px&quot;&gt;&lt;font color=&quot;#E6E6E6&quot;&gt;%c4Description%&lt;/font&gt;&lt;/div&gt;" id="4iiRHGs6QgPylpO3pdiK-52">
          <mxCell style="rounded=1;whiteSpace=wrap;html=1;fontSize=11;labelBackgroundColor=none;fillColor=#60a917;fontColor=#ffffff;align=center;arcSize=10;strokeColor=#2D7600;metaEdit=1;resizable=0;points=[[0.25,0,0],[0.5,0,0],[0.75,0,0],[1,0.25,0],[1,0.5,0],[1,0.75,0],[0.75,1,0],[0.5,1,0],[0.25,1,0],[0,0.75,0],[0,0.5,0],[0,0.25,0]];" vertex="1" parent="1">
            <mxGeometry x="2520" y="650" width="240" height="120" as="geometry" />
          </mxCell>
        </object>
        <mxCell id="4iiRHGs6QgPylpO3pdiK-55" style="edgeStyle=orthogonalEdgeStyle;rounded=0;orthogonalLoop=1;jettySize=auto;html=1;exitX=0.5;exitY=0;exitDx=0;exitDy=0;exitPerimeter=0;entryX=0.579;entryY=0.985;entryDx=0;entryDy=0;entryPerimeter=0;" edge="1" parent="1" source="4iiRHGs6QgPylpO3pdiK-40" target="4iiRHGs6QgPylpO3pdiK-52">
          <mxGeometry relative="1" as="geometry" />
        </mxCell>
        <mxCell id="4iiRHGs6QgPylpO3pdiK-59" value="&lt;font style=&quot;font-size: 13px;&quot;&gt;&lt;b&gt;OS agent&amp;nbsp;&lt;/b&gt;&lt;/font&gt;&lt;div&gt;&lt;font style=&quot;font-size: 13px;&quot;&gt;&lt;b&gt;sidecar&lt;/b&gt;&lt;/font&gt;&lt;div&gt;&lt;div&gt;collects logs&lt;/div&gt;&lt;/div&gt;&lt;/div&gt;" style="rounded=1;whiteSpace=wrap;html=1;fillColor=#f0a30a;fontColor=#000000;strokeColor=#BD7000;" vertex="1" parent="1">
          <mxGeometry x="840" y="1080" width="120" height="50" as="geometry" />
        </mxCell>
        <mxCell id="4iiRHGs6QgPylpO3pdiK-64" value="&lt;font style=&quot;font-size: 13px;&quot;&gt;&lt;b&gt;OTel Agent&amp;nbsp;&lt;/b&gt;&lt;/font&gt;&lt;div&gt;&lt;font style=&quot;font-size: 13px;&quot;&gt;&lt;b&gt;sidecar&lt;/b&gt;&lt;/font&gt;&lt;div&gt;&lt;div&gt;sends traces to collector&lt;/div&gt;&lt;/div&gt;&lt;/div&gt;" style="rounded=1;whiteSpace=wrap;html=1;fillColor=#e51400;fontColor=#ffffff;strokeColor=#B20000;" vertex="1" parent="1">
          <mxGeometry x="1110" y="260" width="140" height="50" as="geometry" />
        </mxCell>
        <mxCell id="4iiRHGs6QgPylpO3pdiK-65" value="&lt;font style=&quot;font-size: 13px;&quot;&gt;&lt;b&gt;OTel Agent&amp;nbsp;&lt;/b&gt;&lt;/font&gt;&lt;div&gt;&lt;font style=&quot;font-size: 13px;&quot;&gt;&lt;b&gt;sidecar&lt;/b&gt;&lt;/font&gt;&lt;div&gt;&lt;div&gt;sends traces to collector&lt;/div&gt;&lt;/div&gt;&lt;/div&gt;" style="rounded=1;whiteSpace=wrap;html=1;fillColor=#e51400;fontColor=#ffffff;strokeColor=#B20000;" vertex="1" parent="1">
          <mxGeometry x="1220" y="800" width="140" height="50" as="geometry" />
        </mxCell>
        <mxCell id="4iiRHGs6QgPylpO3pdiK-66" value="&lt;font style=&quot;font-size: 13px;&quot;&gt;&lt;b&gt;FileBeat agent&amp;nbsp;&lt;/b&gt;&lt;/font&gt;&lt;div&gt;&lt;font style=&quot;font-size: 13px;&quot;&gt;&lt;b&gt;sidecar&lt;/b&gt;&lt;/font&gt;&lt;div&gt;&lt;div&gt;collects logs&lt;/div&gt;&lt;/div&gt;&lt;/div&gt;" style="rounded=1;whiteSpace=wrap;html=1;fillColor=#f0a30a;fontColor=#000000;strokeColor=#BD7000;" vertex="1" parent="1">
          <mxGeometry x="1294" y="960" width="120" height="50" as="geometry" />
        </mxCell>
        <mxCell id="4iiRHGs6QgPylpO3pdiK-67" value="&lt;font style=&quot;font-size: 13px;&quot;&gt;&lt;b&gt;FileBeat agent&amp;nbsp;&lt;/b&gt;&lt;/font&gt;&lt;div&gt;&lt;font style=&quot;font-size: 13px;&quot;&gt;&lt;b&gt;sidecar&lt;/b&gt;&lt;/font&gt;&lt;div&gt;&lt;div&gt;collects logs&lt;/div&gt;&lt;/div&gt;&lt;/div&gt;" style="rounded=1;whiteSpace=wrap;html=1;fillColor=#f0a30a;fontColor=#000000;strokeColor=#BD7000;" vertex="1" parent="1">
          <mxGeometry x="1020" y="670" width="120" height="50" as="geometry" />
        </mxCell>
        <mxCell id="4iiRHGs6QgPylpO3pdiK-126" style="edgeStyle=orthogonalEdgeStyle;rounded=0;orthogonalLoop=1;jettySize=auto;html=1;exitX=0.75;exitY=0;exitDx=0;exitDy=0;entryX=0;entryY=0.75;entryDx=0;entryDy=0;entryPerimeter=0;" edge="1" parent="1" source="4iiRHGs6QgPylpO3pdiK-68" target="4iiRHGs6QgPylpO3pdiK-71">
          <mxGeometry relative="1" as="geometry">
            <mxPoint x="1830" y="1250" as="targetPoint" />
            <Array as="points">
              <mxPoint x="970" y="200" />
              <mxPoint x="1720" y="200" />
              <mxPoint x="1720" y="1250" />
            </Array>
          </mxGeometry>
        </mxCell>
        <mxCell id="4iiRHGs6QgPylpO3pdiK-68" value="&lt;font style=&quot;font-size: 13px;&quot;&gt;&lt;b&gt;OS agent&amp;nbsp;&lt;/b&gt;&lt;/font&gt;&lt;div&gt;&lt;font style=&quot;font-size: 13px;&quot;&gt;&lt;b&gt;sidecar&lt;/b&gt;&lt;/font&gt;&lt;div&gt;&lt;div&gt;collects logs&lt;/div&gt;&lt;/div&gt;&lt;/div&gt;" style="rounded=1;whiteSpace=wrap;html=1;fillColor=#f0a30a;fontColor=#000000;strokeColor=#BD7000;" vertex="1" parent="1">
          <mxGeometry x="880" y="235" width="120" height="50" as="geometry" />
        </mxCell>
        <object placeholders="1" c4Name="logs_storage" c4Type="Container" c4Technology="OpenSearch" c4Description="- Stores general logs &amp; &#xa;audit logs on separate nods&#xa;- manages alerts" label="&lt;font style=&quot;font-size: 16px&quot;&gt;&lt;b&gt;%c4Name%&lt;/b&gt;&lt;/font&gt;&lt;div&gt;[%c4Type%:&amp;nbsp;%c4Technology%]&lt;/div&gt;&lt;br&gt;&lt;div&gt;&lt;font style=&quot;font-size: 11px&quot;&gt;&lt;font color=&quot;#E6E6E6&quot;&gt;%c4Description%&lt;/font&gt;&lt;/div&gt;" id="4iiRHGs6QgPylpO3pdiK-69">
          <mxCell style="shape=cylinder3;size=15;whiteSpace=wrap;html=1;boundedLbl=1;rounded=0;labelBackgroundColor=none;fillColor=#f0a30a;fontSize=12;align=center;strokeColor=#BD7000;metaEdit=1;points=[[0.5,0,0],[1,0.25,0],[1,0.5,0],[1,0.75,0],[0.5,1,0],[0,0.75,0],[0,0.5,0],[0,0.25,0]];resizable=0;fontColor=#000000;" vertex="1" parent="1">
            <mxGeometry x="1740" y="1370" width="240" height="120" as="geometry" />
          </mxCell>
        </object>
        <mxCell id="4iiRHGs6QgPylpO3pdiK-81" value="" style="edgeStyle=orthogonalEdgeStyle;rounded=0;orthogonalLoop=1;jettySize=auto;html=1;" edge="1" parent="1" source="4iiRHGs6QgPylpO3pdiK-71" target="4iiRHGs6QgPylpO3pdiK-69">
          <mxGeometry relative="1" as="geometry" />
        </mxCell>
        <mxCell id="4iiRHGs6QgPylpO3pdiK-82" value="HTTPS Bulk API" style="edgeLabel;html=1;align=center;verticalAlign=middle;resizable=0;points=[];" vertex="1" connectable="0" parent="4iiRHGs6QgPylpO3pdiK-81">
          <mxGeometry x="0.056" y="1" relative="1" as="geometry">
            <mxPoint as="offset" />
          </mxGeometry>
        </mxCell>
        <mxCell id="4iiRHGs6QgPylpO3pdiK-143" value="saves logs" style="edgeLabel;html=1;align=center;verticalAlign=middle;resizable=0;points=[];" vertex="1" connectable="0" parent="4iiRHGs6QgPylpO3pdiK-81">
          <mxGeometry x="-0.7734" y="-2" relative="1" as="geometry">
            <mxPoint as="offset" />
          </mxGeometry>
        </mxCell>
        <object placeholders="1" c4Name="Logstash" c4Type="Container" c4Technology="Logstash" c4Description="- prepares general logs;&#xa;- prepares audit logs in separate pipeline;" label="&lt;font style=&quot;font-size: 16px&quot;&gt;&lt;b&gt;%c4Name%&lt;/b&gt;&lt;/font&gt;&lt;div&gt;[%c4Type%: %c4Technology%]&lt;/div&gt;&lt;br&gt;&lt;div&gt;&lt;font style=&quot;font-size: 11px&quot;&gt;&lt;font color=&quot;#E6E6E6&quot;&gt;%c4Description%&lt;/font&gt;&lt;/div&gt;" id="4iiRHGs6QgPylpO3pdiK-71">
          <mxCell style="rounded=1;whiteSpace=wrap;html=1;fontSize=11;labelBackgroundColor=none;fillColor=#f0a30a;fontColor=#000000;align=center;arcSize=10;strokeColor=#BD7000;metaEdit=1;resizable=0;points=[[0.25,0,0],[0.5,0,0],[0.75,0,0],[1,0.25,0],[1,0.5,0],[1,0.75,0],[0.75,1,0],[0.5,1,0],[0.25,1,0],[0,0.75,0],[0,0.5,0],[0,0.25,0]];" vertex="1" parent="1">
            <mxGeometry x="1828" y="1160" width="240" height="120" as="geometry" />
          </mxCell>
        </object>
        <object placeholders="1" c4Name="OS DashBoards" c4Type="Container" c4Technology="OS DashBoards" c4Description="UI for logs, alerts" label="&lt;font style=&quot;font-size: 16px&quot;&gt;&lt;b&gt;%c4Name%&lt;/b&gt;&lt;/font&gt;&lt;div&gt;[%c4Type%: %c4Technology%]&lt;/div&gt;&lt;br&gt;&lt;div&gt;&lt;font style=&quot;font-size: 11px&quot;&gt;&lt;font color=&quot;#E6E6E6&quot;&gt;%c4Description%&lt;/font&gt;&lt;/div&gt;" id="4iiRHGs6QgPylpO3pdiK-73">
          <mxCell style="rounded=1;whiteSpace=wrap;html=1;fontSize=11;labelBackgroundColor=none;fillColor=#f0a30a;fontColor=#000000;align=center;arcSize=10;strokeColor=#BD7000;metaEdit=1;resizable=0;points=[[0.25,0,0],[0.5,0,0],[0.75,0,0],[1,0.25,0],[1,0.5,0],[1,0.75,0],[0.75,1,0],[0.5,1,0],[0.25,1,0],[0,0.75,0],[0,0.5,0],[0,0.25,0]];" vertex="1" parent="1">
            <mxGeometry x="2190" y="1160" width="240" height="120" as="geometry" />
          </mxCell>
        </object>
        <object placeholders="1" c4Name="OS Dashboards UI" c4Type="Container" c4Technology="Web" c4Description="Logs UI, alerting" label="&lt;font style=&quot;font-size: 16px&quot;&gt;&lt;b&gt;%c4Name%&lt;/b&gt;&lt;/font&gt;&lt;div&gt;[%c4Type%: %c4Technology%]&lt;/div&gt;&lt;br&gt;&lt;div&gt;&lt;font style=&quot;font-size: 11px&quot;&gt;&lt;font color=&quot;#E6E6E6&quot;&gt;%c4Description%&lt;/font&gt;&lt;/div&gt;" id="4iiRHGs6QgPylpO3pdiK-74">
          <mxCell style="rounded=1;whiteSpace=wrap;html=1;fontSize=11;labelBackgroundColor=none;fillColor=#f0a30a;fontColor=#000000;align=center;arcSize=10;strokeColor=#BD7000;metaEdit=1;resizable=0;points=[[0.25,0,0],[0.5,0,0],[0.75,0,0],[1,0.25,0],[1,0.5,0],[1,0.75,0],[0.75,1,0],[0.5,1,0],[0.25,1,0],[0,0.75,0],[0,0.5,0],[0,0.25,0]];" vertex="1" parent="1">
            <mxGeometry x="2570" y="1160" width="240" height="120" as="geometry" />
          </mxCell>
        </object>
        <mxCell id="4iiRHGs6QgPylpO3pdiK-75" style="edgeStyle=orthogonalEdgeStyle;rounded=0;orthogonalLoop=1;jettySize=auto;html=1;exitX=0.5;exitY=1;exitDx=0;exitDy=0;" edge="1" parent="1" source="4iiRHGs6QgPylpO3pdiK-66">
          <mxGeometry relative="1" as="geometry">
            <mxPoint x="1828" y="1250" as="targetPoint" />
            <Array as="points">
              <mxPoint x="1354" y="1250" />
              <mxPoint x="1828" y="1250" />
            </Array>
          </mxGeometry>
        </mxCell>
        <mxCell id="4iiRHGs6QgPylpO3pdiK-76" style="edgeStyle=orthogonalEdgeStyle;rounded=0;orthogonalLoop=1;jettySize=auto;html=1;exitX=1;exitY=0.5;exitDx=0;exitDy=0;entryX=0;entryY=0.75;entryDx=0;entryDy=0;entryPerimeter=0;" edge="1" parent="1" source="4iiRHGs6QgPylpO3pdiK-67" target="4iiRHGs6QgPylpO3pdiK-71">
          <mxGeometry relative="1" as="geometry">
            <Array as="points">
              <mxPoint x="1190" y="695" />
              <mxPoint x="1190" y="1250" />
            </Array>
          </mxGeometry>
        </mxCell>
        <mxCell id="4iiRHGs6QgPylpO3pdiK-79" value="HTTPS POST" style="edgeLabel;html=1;align=center;verticalAlign=middle;resizable=0;points=[];" vertex="1" connectable="0" parent="1">
          <mxGeometry x="1700" y="1280" as="geometry">
            <mxPoint x="74" y="-43" as="offset" />
          </mxGeometry>
        </mxCell>
        <mxCell id="4iiRHGs6QgPylpO3pdiK-90" value="&lt;font style=&quot;font-size: 13px;&quot;&gt;&lt;b&gt;OS agent&amp;nbsp;&lt;/b&gt;&lt;/font&gt;&lt;div&gt;&lt;font style=&quot;font-size: 13px;&quot;&gt;&lt;b&gt;sidecar&lt;/b&gt;&lt;/font&gt;&lt;div&gt;&lt;div&gt;collects logs&lt;/div&gt;&lt;/div&gt;&lt;/div&gt;" style="rounded=1;whiteSpace=wrap;html=1;fillColor=#f0a30a;fontColor=#000000;strokeColor=#BD7000;" vertex="1" parent="1">
          <mxGeometry x="1500" y="235" width="120" height="50" as="geometry" />
        </mxCell>
        <mxCell id="4iiRHGs6QgPylpO3pdiK-92" value="&lt;font style=&quot;font-size: 13px;&quot;&gt;&lt;b&gt;OS agent&amp;nbsp;&lt;/b&gt;&lt;/font&gt;&lt;div&gt;&lt;font style=&quot;font-size: 13px;&quot;&gt;&lt;b&gt;sidecar&lt;/b&gt;&lt;/font&gt;&lt;div&gt;&lt;div&gt;collects logs&lt;/div&gt;&lt;/div&gt;&lt;/div&gt;" style="rounded=1;whiteSpace=wrap;html=1;fillColor=#f0a30a;fontColor=#000000;strokeColor=#BD7000;" vertex="1" parent="1">
          <mxGeometry x="1520" y="1015" width="120" height="50" as="geometry" />
        </mxCell>
        <object placeholders="1" c4Name="Ext systems" c4Type="Container" c4Technology="Telegram, e-mail, &#xa;mobile provider, etc" c4Description="Delivers messages and calls" label="&lt;font style=&quot;font-size: 16px&quot;&gt;&lt;b&gt;%c4Name%&lt;/b&gt;&lt;/font&gt;&lt;div&gt;[%c4Type%: %c4Technology%]&lt;/div&gt;&lt;br&gt;&lt;div&gt;&lt;font style=&quot;font-size: 11px&quot;&gt;&lt;font color=&quot;#E6E6E6&quot;&gt;%c4Description%&lt;/font&gt;&lt;/div&gt;" id="4iiRHGs6QgPylpO3pdiK-93">
          <mxCell style="rounded=1;whiteSpace=wrap;html=1;fontSize=11;labelBackgroundColor=none;fillColor=#647687;align=center;arcSize=10;strokeColor=#314354;metaEdit=1;resizable=0;points=[[0.25,0,0],[0.5,0,0],[0.75,0,0],[1,0.25,0],[1,0.5,0],[1,0.75,0],[0.75,1,0],[0.5,1,0],[0.25,1,0],[0,0.75,0],[0,0.5,0],[0,0.25,0]];fontColor=#ffffff;" vertex="1" parent="1">
            <mxGeometry x="2140" y="925" width="240" height="120" as="geometry" />
          </mxCell>
        </object>
        <mxCell id="4iiRHGs6QgPylpO3pdiK-94" style="edgeStyle=orthogonalEdgeStyle;rounded=0;orthogonalLoop=1;jettySize=auto;html=1;exitX=1;exitY=0.5;exitDx=0;exitDy=0;exitPerimeter=0;entryX=0;entryY=0.5;entryDx=0;entryDy=0;entryPerimeter=0;" edge="1" parent="1" source="4iiRHGs6QgPylpO3pdiK-35" target="4iiRHGs6QgPylpO3pdiK-93">
          <mxGeometry relative="1" as="geometry" />
        </mxCell>
        <mxCell id="4iiRHGs6QgPylpO3pdiK-96" value="HTTPS REST&lt;div&gt;sends alerts&lt;/div&gt;" style="edgeLabel;html=1;align=center;verticalAlign=middle;resizable=0;points=[];" vertex="1" connectable="0" parent="4iiRHGs6QgPylpO3pdiK-94">
          <mxGeometry x="0.0787" y="3" relative="1" as="geometry">
            <mxPoint x="1" y="-51" as="offset" />
          </mxGeometry>
        </mxCell>
        <mxCell id="4iiRHGs6QgPylpO3pdiK-95" style="edgeStyle=orthogonalEdgeStyle;rounded=0;orthogonalLoop=1;jettySize=auto;html=1;exitX=1;exitY=0.5;exitDx=0;exitDy=0;exitPerimeter=0;entryX=-0.01;entryY=0.694;entryDx=0;entryDy=0;entryPerimeter=0;" edge="1" parent="1" source="4iiRHGs6QgPylpO3pdiK-93" target="4iiRHGs6QgPylpO3pdiK-40">
          <mxGeometry relative="1" as="geometry" />
        </mxCell>
        <mxCell id="4iiRHGs6QgPylpO3pdiK-99" style="edgeStyle=orthogonalEdgeStyle;rounded=0;orthogonalLoop=1;jettySize=auto;html=1;exitX=1;exitY=0.5;exitDx=0;exitDy=0;exitPerimeter=0;entryX=0.058;entryY=0.994;entryDx=0;entryDy=0;entryPerimeter=0;" edge="1" parent="1" source="4iiRHGs6QgPylpO3pdiK-69" target="4iiRHGs6QgPylpO3pdiK-97">
          <mxGeometry relative="1" as="geometry" />
        </mxCell>
        <mxCell id="4iiRHGs6QgPylpO3pdiK-100" value="HTTPS REST&lt;div&gt;sends alerts&lt;/div&gt;" style="edgeLabel;html=1;align=center;verticalAlign=middle;resizable=0;points=[];" vertex="1" connectable="0" parent="4iiRHGs6QgPylpO3pdiK-99">
          <mxGeometry x="-0.5086" y="2" relative="1" as="geometry">
            <mxPoint as="offset" />
          </mxGeometry>
        </mxCell>
        <mxCell id="4iiRHGs6QgPylpO3pdiK-101" value="&lt;font style=&quot;font-size: 13px;&quot;&gt;&lt;b&gt;FileBeat agent&amp;nbsp;&lt;/b&gt;&lt;/font&gt;&lt;div&gt;&lt;font style=&quot;font-size: 13px;&quot;&gt;&lt;b&gt;sidecar&lt;/b&gt;&lt;/font&gt;&lt;div&gt;&lt;div&gt;collects logs&lt;/div&gt;&lt;/div&gt;&lt;/div&gt;" style="rounded=1;whiteSpace=wrap;html=1;fillColor=#f0a30a;fontColor=#000000;strokeColor=#BD7000;" vertex="1" parent="1">
          <mxGeometry x="1520" y="760" width="120" height="50" as="geometry" />
        </mxCell>
        <mxCell id="4iiRHGs6QgPylpO3pdiK-102" style="edgeStyle=orthogonalEdgeStyle;rounded=0;orthogonalLoop=1;jettySize=auto;html=1;exitX=1;exitY=0.5;exitDx=0;exitDy=0;entryX=0;entryY=0.75;entryDx=0;entryDy=0;entryPerimeter=0;" edge="1" parent="1" source="4iiRHGs6QgPylpO3pdiK-92" target="4iiRHGs6QgPylpO3pdiK-71">
          <mxGeometry relative="1" as="geometry">
            <Array as="points">
              <mxPoint x="1720" y="1040" />
              <mxPoint x="1720" y="1250" />
            </Array>
          </mxGeometry>
        </mxCell>
        <mxCell id="4iiRHGs6QgPylpO3pdiK-105" style="edgeStyle=orthogonalEdgeStyle;rounded=0;orthogonalLoop=1;jettySize=auto;html=1;exitX=1;exitY=0.5;exitDx=0;exitDy=0;entryX=0;entryY=0.75;entryDx=0;entryDy=0;entryPerimeter=0;" edge="1" parent="1" source="4iiRHGs6QgPylpO3pdiK-101" target="4iiRHGs6QgPylpO3pdiK-71">
          <mxGeometry relative="1" as="geometry">
            <Array as="points">
              <mxPoint x="1720" y="785" />
              <mxPoint x="1720" y="1250" />
            </Array>
          </mxGeometry>
        </mxCell>
        <mxCell id="4iiRHGs6QgPylpO3pdiK-106" style="edgeStyle=orthogonalEdgeStyle;rounded=0;orthogonalLoop=1;jettySize=auto;html=1;exitX=1;exitY=0.5;exitDx=0;exitDy=0;entryX=0;entryY=0.75;entryDx=0;entryDy=0;entryPerimeter=0;" edge="1" parent="1" source="4iiRHGs6QgPylpO3pdiK-90" target="4iiRHGs6QgPylpO3pdiK-71">
          <mxGeometry relative="1" as="geometry">
            <Array as="points">
              <mxPoint x="1720" y="260" />
              <mxPoint x="1720" y="1250" />
            </Array>
          </mxGeometry>
        </mxCell>
        <mxCell id="4iiRHGs6QgPylpO3pdiK-107" style="edgeStyle=orthogonalEdgeStyle;rounded=0;orthogonalLoop=1;jettySize=auto;html=1;entryX=0;entryY=0.75;entryDx=0;entryDy=0;entryPerimeter=0;" edge="1" parent="1" target="4iiRHGs6QgPylpO3pdiK-71">
          <mxGeometry relative="1" as="geometry">
            <mxPoint x="960" y="1100" as="sourcePoint" />
            <Array as="points">
              <mxPoint x="1030" y="1100" />
              <mxPoint x="1030" y="1250" />
            </Array>
          </mxGeometry>
        </mxCell>
        <mxCell id="4iiRHGs6QgPylpO3pdiK-108" style="edgeStyle=orthogonalEdgeStyle;rounded=0;orthogonalLoop=1;jettySize=auto;html=1;exitX=0.5;exitY=0;exitDx=0;exitDy=0;entryX=0;entryY=0.25;entryDx=0;entryDy=0;entryPerimeter=0;" edge="1" parent="1" source="4iiRHGs6QgPylpO3pdiK-65" target="4iiRHGs6QgPylpO3pdiK-3">
          <mxGeometry relative="1" as="geometry">
            <Array as="points">
              <mxPoint x="1290" y="750" />
              <mxPoint x="1350" y="750" />
              <mxPoint x="1350" y="480" />
            </Array>
          </mxGeometry>
        </mxCell>
        <mxCell id="4iiRHGs6QgPylpO3pdiK-109" style="edgeStyle=orthogonalEdgeStyle;rounded=0;orthogonalLoop=1;jettySize=auto;html=1;exitX=1;exitY=0.5;exitDx=0;exitDy=0;entryX=0;entryY=0.25;entryDx=0;entryDy=0;entryPerimeter=0;" edge="1" parent="1" source="4iiRHGs6QgPylpO3pdiK-9" target="4iiRHGs6QgPylpO3pdiK-3">
          <mxGeometry relative="1" as="geometry">
            <Array as="points">
              <mxPoint x="1150" y="535" />
              <mxPoint x="1150" y="480" />
            </Array>
          </mxGeometry>
        </mxCell>
        <object placeholders="1" c4Name="Auth service" c4Type="Container" c4Technology="keycloak" c4Description="Users autentification" label="&lt;font style=&quot;font-size: 16px&quot;&gt;&lt;b&gt;%c4Name%&lt;/b&gt;&lt;/font&gt;&lt;div&gt;[%c4Type%: %c4Technology%]&lt;/div&gt;&lt;br&gt;&lt;div&gt;&lt;font style=&quot;font-size: 11px&quot;&gt;&lt;font color=&quot;#E6E6E6&quot;&gt;%c4Description%&lt;/font&gt;&lt;/div&gt;" id="4iiRHGs6QgPylpO3pdiK-110">
          <mxCell style="rounded=1;whiteSpace=wrap;html=1;fontSize=11;labelBackgroundColor=none;fillColor=#76608a;fontColor=#ffffff;align=center;arcSize=10;strokeColor=#432D57;metaEdit=1;resizable=0;points=[[0.25,0,0],[0.5,0,0],[0.75,0,0],[1,0.25,0],[1,0.5,0],[1,0.75,0],[0.75,1,0],[0.5,1,0],[0.25,1,0],[0,0.75,0],[0,0.5,0],[0,0.25,0]];" vertex="1" parent="1">
            <mxGeometry x="620" y="1330" width="240" height="120" as="geometry" />
          </mxCell>
        </object>
        <object placeholders="1" c4Name="users_db" c4Type="Container" c4Technology="PostgreSQL" c4Description="Users storage" label="&lt;font style=&quot;font-size: 16px&quot;&gt;&lt;b&gt;%c4Name%&lt;/b&gt;&lt;/font&gt;&lt;div&gt;[%c4Type%:&amp;nbsp;%c4Technology%]&lt;/div&gt;&lt;br&gt;&lt;div&gt;&lt;font style=&quot;font-size: 11px&quot;&gt;&lt;font color=&quot;#E6E6E6&quot;&gt;%c4Description%&lt;/font&gt;&lt;/div&gt;" id="4iiRHGs6QgPylpO3pdiK-111">
          <mxCell style="shape=cylinder3;size=15;whiteSpace=wrap;html=1;boundedLbl=1;rounded=0;labelBackgroundColor=none;fillColor=#76608a;fontSize=12;fontColor=#ffffff;align=center;strokeColor=#432D57;metaEdit=1;points=[[0.5,0,0],[1,0.25,0],[1,0.5,0],[1,0.75,0],[0.5,1,0],[0,0.75,0],[0,0.5,0],[0,0.25,0]];resizable=0;" vertex="1" parent="1">
            <mxGeometry x="320" y="1330" width="240" height="120" as="geometry" />
          </mxCell>
        </object>
        <object placeholders="1" c4Name="ext_api_gateway" c4Type="Container" c4Technology="kong,ISTIO,aws" c4Description="balancing and routing" label="&lt;font style=&quot;font-size: 16px&quot;&gt;&lt;b&gt;%c4Name%&lt;/b&gt;&lt;/font&gt;&lt;div&gt;[%c4Type%: %c4Technology%]&lt;/div&gt;&lt;br&gt;&lt;div&gt;&lt;font style=&quot;font-size: 11px&quot;&gt;&lt;font color=&quot;#E6E6E6&quot;&gt;%c4Description%&lt;/font&gt;&lt;/div&gt;" id="4iiRHGs6QgPylpO3pdiK-113">
          <mxCell style="rounded=1;whiteSpace=wrap;html=1;fontSize=11;labelBackgroundColor=none;fillColor=#76608a;fontColor=#ffffff;align=center;arcSize=10;strokeColor=#432D57;metaEdit=1;resizable=0;points=[[0.25,0,0],[0.5,0,0],[0.75,0,0],[1,0.25,0],[1,0.5,0],[1,0.75,0],[0.75,1,0],[0.5,1,0],[0.25,1,0],[0,0.75,0],[0,0.5,0],[0,0.25,0]];" vertex="1" parent="1">
            <mxGeometry x="490" y="635" width="240" height="120" as="geometry" />
          </mxCell>
        </object>
        <mxCell id="4iiRHGs6QgPylpO3pdiK-117" style="edgeStyle=orthogonalEdgeStyle;rounded=0;orthogonalLoop=1;jettySize=auto;html=1;exitX=1;exitY=0.25;exitDx=0;exitDy=0;exitPerimeter=0;entryX=0;entryY=0.5;entryDx=0;entryDy=0;entryPerimeter=0;" edge="1" parent="1" source="4iiRHGs6QgPylpO3pdiK-113" target="6bDfexBDMjg7O7AECw8N-8">
          <mxGeometry relative="1" as="geometry">
            <Array as="points">
              <mxPoint x="800" y="665" />
              <mxPoint x="800" y="340" />
            </Array>
          </mxGeometry>
        </mxCell>
        <mxCell id="4iiRHGs6QgPylpO3pdiK-118" style="edgeStyle=orthogonalEdgeStyle;rounded=0;orthogonalLoop=1;jettySize=auto;html=1;exitX=1;exitY=0.5;exitDx=0;exitDy=0;exitPerimeter=0;entryX=0;entryY=0.5;entryDx=0;entryDy=0;entryPerimeter=0;" edge="1" parent="1" source="4iiRHGs6QgPylpO3pdiK-113" target="6bDfexBDMjg7O7AECw8N-10">
          <mxGeometry relative="1" as="geometry" />
        </mxCell>
        <mxCell id="4iiRHGs6QgPylpO3pdiK-120" style="edgeStyle=orthogonalEdgeStyle;rounded=0;orthogonalLoop=1;jettySize=auto;html=1;entryX=0;entryY=0.75;entryDx=0;entryDy=0;entryPerimeter=0;" edge="1" parent="1" target="4iiRHGs6QgPylpO3pdiK-113">
          <mxGeometry relative="1" as="geometry">
            <mxPoint x="420" y="1060" as="sourcePoint" />
            <Array as="points">
              <mxPoint x="420" y="1060" />
              <mxPoint x="420" y="725" />
            </Array>
          </mxGeometry>
        </mxCell>
        <mxCell id="4iiRHGs6QgPylpO3pdiK-123" value="HTTPS REST" style="edgeLabel;html=1;align=center;verticalAlign=middle;resizable=0;points=[];" vertex="1" connectable="0" parent="4iiRHGs6QgPylpO3pdiK-120">
          <mxGeometry x="0.7165" y="3" relative="1" as="geometry">
            <mxPoint y="-12" as="offset" />
          </mxGeometry>
        </mxCell>
        <mxCell id="4iiRHGs6QgPylpO3pdiK-124" value="HTTPS REST" style="edgeLabel;html=1;align=center;verticalAlign=middle;resizable=0;points=[];" vertex="1" connectable="0" parent="1">
          <mxGeometry x="660" y="550" as="geometry" />
        </mxCell>
        <object placeholders="1" c4Name="ext_api_gateway" c4Type="Container" c4Technology="kong,ISTIO,aws" c4Description="маршрутизация и балансировка" label="&lt;font style=&quot;font-size: 16px&quot;&gt;&lt;b&gt;%c4Name%&lt;/b&gt;&lt;/font&gt;&lt;div&gt;[%c4Type%: %c4Technology%]&lt;/div&gt;&lt;br&gt;&lt;div&gt;&lt;font style=&quot;font-size: 11px&quot;&gt;&lt;font color=&quot;#E6E6E6&quot;&gt;%c4Description%&lt;/font&gt;&lt;/div&gt;" id="4iiRHGs6QgPylpO3pdiK-127">
          <mxCell style="rounded=1;whiteSpace=wrap;html=1;fontSize=11;labelBackgroundColor=none;fillColor=#76608a;fontColor=#ffffff;align=center;arcSize=10;strokeColor=#432D57;metaEdit=1;resizable=0;points=[[0.25,0,0],[0.5,0,0],[0.75,0,0],[1,0.25,0],[1,0.5,0],[1,0.75,0],[0.75,1,0],[0.5,1,0],[0.25,1,0],[0,0.75,0],[0,0.5,0],[0,0.25,0]];" vertex="1" parent="1">
            <mxGeometry x="2440" y="450" width="240" height="120" as="geometry" />
          </mxCell>
        </object>
        <mxCell id="4iiRHGs6QgPylpO3pdiK-128" style="edgeStyle=orthogonalEdgeStyle;rounded=0;orthogonalLoop=1;jettySize=auto;html=1;exitX=0.646;exitY=0.979;exitDx=0;exitDy=0;exitPerimeter=0;entryX=0.25;entryY=0;entryDx=0;entryDy=0;entryPerimeter=0;" edge="1" parent="1" source="4iiRHGs6QgPylpO3pdiK-113" target="4iiRHGs6QgPylpO3pdiK-110">
          <mxGeometry relative="1" as="geometry">
            <Array as="points">
              <mxPoint x="645" y="1310" />
            </Array>
          </mxGeometry>
        </mxCell>
        <mxCell id="4iiRHGs6QgPylpO3pdiK-148" value="HTTPS REST" style="edgeLabel;html=1;align=center;verticalAlign=middle;resizable=0;points=[];" vertex="1" connectable="0" parent="4iiRHGs6QgPylpO3pdiK-128">
          <mxGeometry x="0.4893" y="3" relative="1" as="geometry">
            <mxPoint as="offset" />
          </mxGeometry>
        </mxCell>
        <mxCell id="4iiRHGs6QgPylpO3pdiK-129" style="edgeStyle=orthogonalEdgeStyle;rounded=0;orthogonalLoop=1;jettySize=auto;html=1;exitX=0;exitY=0.5;exitDx=0;exitDy=0;exitPerimeter=0;entryX=1;entryY=0.5;entryDx=0;entryDy=0;entryPerimeter=0;" edge="1" parent="1" source="4iiRHGs6QgPylpO3pdiK-110" target="4iiRHGs6QgPylpO3pdiK-111">
          <mxGeometry relative="1" as="geometry" />
        </mxCell>
        <mxCell id="4iiRHGs6QgPylpO3pdiK-131" style="edgeStyle=orthogonalEdgeStyle;rounded=0;orthogonalLoop=1;jettySize=auto;html=1;exitX=0.75;exitY=1;exitDx=0;exitDy=0;exitPerimeter=0;entryX=0;entryY=0.5;entryDx=0;entryDy=0;entryPerimeter=0;" edge="1" parent="1" source="4iiRHGs6QgPylpO3pdiK-113" target="6bDfexBDMjg7O7AECw8N-1">
          <mxGeometry relative="1" as="geometry" />
        </mxCell>
        <mxCell id="4iiRHGs6QgPylpO3pdiK-135" style="edgeStyle=orthogonalEdgeStyle;rounded=0;orthogonalLoop=1;jettySize=auto;html=1;exitX=0;exitY=0.5;exitDx=0;exitDy=0;exitPerimeter=0;entryX=1.003;entryY=0.451;entryDx=0;entryDy=0;entryPerimeter=0;" edge="1" parent="1" source="4iiRHGs6QgPylpO3pdiK-127" target="4iiRHGs6QgPylpO3pdiK-5">
          <mxGeometry relative="1" as="geometry" />
        </mxCell>
        <mxCell id="4iiRHGs6QgPylpO3pdiK-137" style="edgeStyle=orthogonalEdgeStyle;rounded=0;orthogonalLoop=1;jettySize=auto;html=1;exitX=0.5;exitY=0;exitDx=0;exitDy=0;exitPerimeter=0;entryX=0.834;entryY=0.992;entryDx=0;entryDy=0;entryPerimeter=0;" edge="1" parent="1" source="4iiRHGs6QgPylpO3pdiK-52" target="4iiRHGs6QgPylpO3pdiK-127">
          <mxGeometry relative="1" as="geometry" />
        </mxCell>
        <mxCell id="4iiRHGs6QgPylpO3pdiK-138" style="edgeStyle=orthogonalEdgeStyle;rounded=0;orthogonalLoop=1;jettySize=auto;html=1;exitX=0;exitY=0.25;exitDx=0;exitDy=0;exitPerimeter=0;entryX=0.25;entryY=1;entryDx=0;entryDy=0;entryPerimeter=0;" edge="1" parent="1" source="4iiRHGs6QgPylpO3pdiK-74" target="4iiRHGs6QgPylpO3pdiK-127">
          <mxGeometry relative="1" as="geometry" />
        </mxCell>
        <mxCell id="4iiRHGs6QgPylpO3pdiK-144" value="HTTPS REST" style="edgeLabel;html=1;align=center;verticalAlign=middle;resizable=0;points=[];" vertex="1" connectable="0" parent="4iiRHGs6QgPylpO3pdiK-138">
          <mxGeometry x="0.1353" relative="1" as="geometry">
            <mxPoint as="offset" />
          </mxGeometry>
        </mxCell>
        <mxCell id="4iiRHGs6QgPylpO3pdiK-139" style="edgeStyle=orthogonalEdgeStyle;rounded=0;orthogonalLoop=1;jettySize=auto;html=1;entryX=0.885;entryY=-0.003;entryDx=0;entryDy=0;entryPerimeter=0;" edge="1" parent="1" target="4iiRHGs6QgPylpO3pdiK-98">
          <mxGeometry relative="1" as="geometry">
            <mxPoint x="2440" y="510" as="sourcePoint" />
            <Array as="points">
              <mxPoint x="2440" y="510" />
              <mxPoint x="2412" y="510" />
            </Array>
          </mxGeometry>
        </mxCell>
        <mxCell id="4iiRHGs6QgPylpO3pdiK-140" style="edgeStyle=orthogonalEdgeStyle;rounded=0;orthogonalLoop=1;jettySize=auto;html=1;exitX=1;exitY=0.5;exitDx=0;exitDy=0;exitPerimeter=0;" edge="1" parent="1" source="4iiRHGs6QgPylpO3pdiK-127" target="4iiRHGs6QgPylpO3pdiK-110">
          <mxGeometry relative="1" as="geometry">
            <mxPoint x="860" y="1350" as="targetPoint" />
            <Array as="points">
              <mxPoint x="2860" y="510" />
              <mxPoint x="2860" y="1350" />
            </Array>
          </mxGeometry>
        </mxCell>
        <mxCell id="4iiRHGs6QgPylpO3pdiK-141" value="HTTPS REST" style="edgeLabel;html=1;align=center;verticalAlign=middle;resizable=0;points=[];" vertex="1" connectable="0" parent="4iiRHGs6QgPylpO3pdiK-140">
          <mxGeometry x="0.8568" y="1" relative="1" as="geometry">
            <mxPoint x="1" as="offset" />
          </mxGeometry>
        </mxCell>
        <mxCell id="4iiRHGs6QgPylpO3pdiK-147" value="autentification" style="edgeLabel;html=1;align=center;verticalAlign=middle;resizable=0;points=[];" vertex="1" connectable="0" parent="4iiRHGs6QgPylpO3pdiK-140">
          <mxGeometry x="-0.9681" y="1" relative="1" as="geometry">
            <mxPoint x="21" y="-9" as="offset" />
          </mxGeometry>
        </mxCell>
        <mxCell id="4iiRHGs6QgPylpO3pdiK-142" style="edgeStyle=orthogonalEdgeStyle;rounded=0;orthogonalLoop=1;jettySize=auto;html=1;exitX=0.5;exitY=1;exitDx=0;exitDy=0;exitPerimeter=0;entryX=1;entryY=0.75;entryDx=0;entryDy=0;entryPerimeter=0;" edge="1" parent="1" source="4iiRHGs6QgPylpO3pdiK-73" target="4iiRHGs6QgPylpO3pdiK-69">
          <mxGeometry relative="1" as="geometry" />
        </mxCell>
        <mxCell id="4iiRHGs6QgPylpO3pdiK-146" value="HTTPS REST" style="edgeLabel;html=1;align=center;verticalAlign=middle;resizable=0;points=[];" vertex="1" connectable="0" parent="1">
          <mxGeometry x="2400" y="490" as="geometry" />
        </mxCell>
      </root>
    </mxGraphModel>
  </diagram>
</mxfile>
